<mxfile host="app.diagrams.net" agent="Mozilla/5.0 (X11; Linux x86_64; rv:135.0) Gecko/20100101 Firefox/135.0" version="26.0.16">
  <diagram name="Quantization Model" id="dlWvExXdN6xlSllNkRNf">
    <mxGraphModel dx="989" dy="528" grid="1" gridSize="10" guides="1" tooltips="1" connect="1" arrows="1" fold="1" page="1" pageScale="1" pageWidth="827" pageHeight="1169" math="0" shadow="0">
      <root>
        <mxCell id="0" />
        <mxCell id="1" parent="0" />
        <mxCell id="1-Zycqq-4m_5n2CwUNeE-2" value="Actual Model" style="text;html=1;align=center;verticalAlign=middle;resizable=0;points=[];autosize=1;strokeColor=none;fillColor=none;" vertex="1" parent="1">
          <mxGeometry x="40" y="40" width="100" height="30" as="geometry" />
        </mxCell>
        <mxCell id="1-Zycqq-4m_5n2CwUNeE-7" style="edgeStyle=orthogonalEdgeStyle;rounded=0;orthogonalLoop=1;jettySize=auto;html=1;entryX=0;entryY=0.5;entryDx=0;entryDy=0;" edge="1" parent="1" source="1-Zycqq-4m_5n2CwUNeE-3" target="1-Zycqq-4m_5n2CwUNeE-6">
          <mxGeometry relative="1" as="geometry" />
        </mxCell>
        <mxCell id="1-Zycqq-4m_5n2CwUNeE-11" value="24" style="edgeLabel;html=1;align=center;verticalAlign=middle;resizable=0;points=[];" vertex="1" connectable="0" parent="1-Zycqq-4m_5n2CwUNeE-7">
          <mxGeometry x="-0.0071" y="-2" relative="1" as="geometry">
            <mxPoint x="-4" y="-2" as="offset" />
          </mxGeometry>
        </mxCell>
        <mxCell id="1-Zycqq-4m_5n2CwUNeE-3" value="&lt;div&gt;Layer-1 FP32&lt;/div&gt;&lt;div&gt;&amp;nbsp;&lt;/div&gt;&lt;div&gt;[784, 24]&lt;/div&gt;" style="whiteSpace=wrap;html=1;" vertex="1" parent="1">
          <mxGeometry x="141" y="110" width="120" height="90" as="geometry" />
        </mxCell>
        <mxCell id="1-Zycqq-4m_5n2CwUNeE-4" value="" style="edgeStyle=none;orthogonalLoop=1;jettySize=auto;html=1;rounded=0;entryX=0;entryY=0.5;entryDx=0;entryDy=0;" edge="1" parent="1" target="1-Zycqq-4m_5n2CwUNeE-3">
          <mxGeometry width="100" relative="1" as="geometry">
            <mxPoint x="81" y="155" as="sourcePoint" />
            <mxPoint x="111" y="154.5" as="targetPoint" />
            <Array as="points" />
          </mxGeometry>
        </mxCell>
        <mxCell id="1-Zycqq-4m_5n2CwUNeE-8" value="&amp;lt;784&amp;gt;" style="edgeLabel;html=1;align=center;verticalAlign=middle;resizable=0;points=[];" vertex="1" connectable="0" parent="1-Zycqq-4m_5n2CwUNeE-4">
          <mxGeometry x="-0.2333" y="-1" relative="1" as="geometry">
            <mxPoint y="-1" as="offset" />
          </mxGeometry>
        </mxCell>
        <mxCell id="1-Zycqq-4m_5n2CwUNeE-5" value="&lt;div&gt;x&amp;nbsp;&lt;/div&gt;&lt;div&gt;fp32&lt;/div&gt;&lt;div&gt;[-1,1]&lt;/div&gt;" style="text;html=1;align=center;verticalAlign=middle;resizable=0;points=[];autosize=1;strokeColor=none;fillColor=none;" vertex="1" parent="1">
          <mxGeometry x="40" y="125" width="50" height="60" as="geometry" />
        </mxCell>
        <mxCell id="1-Zycqq-4m_5n2CwUNeE-9" style="edgeStyle=orthogonalEdgeStyle;rounded=0;orthogonalLoop=1;jettySize=auto;html=1;" edge="1" parent="1" source="1-Zycqq-4m_5n2CwUNeE-6">
          <mxGeometry relative="1" as="geometry">
            <mxPoint x="471" y="155" as="targetPoint" />
          </mxGeometry>
        </mxCell>
        <mxCell id="1-Zycqq-4m_5n2CwUNeE-10" value="&amp;lt;10&amp;gt;" style="edgeLabel;html=1;align=center;verticalAlign=middle;resizable=0;points=[];" vertex="1" connectable="0" parent="1-Zycqq-4m_5n2CwUNeE-9">
          <mxGeometry x="-0.1008" relative="1" as="geometry">
            <mxPoint as="offset" />
          </mxGeometry>
        </mxCell>
        <mxCell id="1-Zycqq-4m_5n2CwUNeE-6" value="&lt;div&gt;Layer-2 FP32&lt;/div&gt;&lt;div&gt;&lt;br&gt;&lt;/div&gt;&lt;div&gt;[24,10]&lt;/div&gt;" style="whiteSpace=wrap;html=1;" vertex="1" parent="1">
          <mxGeometry x="301" y="110" width="120" height="90" as="geometry" />
        </mxCell>
        <mxCell id="1-Zycqq-4m_5n2CwUNeE-19" style="edgeStyle=orthogonalEdgeStyle;rounded=0;orthogonalLoop=1;jettySize=auto;html=1;entryX=0;entryY=0.5;entryDx=0;entryDy=0;" edge="1" parent="1" target="1-Zycqq-4m_5n2CwUNeE-18">
          <mxGeometry relative="1" as="geometry">
            <mxPoint x="109" y="380" as="sourcePoint" />
            <Array as="points">
              <mxPoint x="149" y="380" />
              <mxPoint x="149" y="380" />
            </Array>
          </mxGeometry>
        </mxCell>
        <mxCell id="1-Zycqq-4m_5n2CwUNeE-20" value="&amp;lt;784&amp;gt;" style="edgeLabel;html=1;align=center;verticalAlign=middle;resizable=0;points=[];" vertex="1" connectable="0" parent="1-Zycqq-4m_5n2CwUNeE-19">
          <mxGeometry x="-0.0698" relative="1" as="geometry">
            <mxPoint as="offset" />
          </mxGeometry>
        </mxCell>
        <mxCell id="1-Zycqq-4m_5n2CwUNeE-22" style="edgeStyle=orthogonalEdgeStyle;rounded=0;orthogonalLoop=1;jettySize=auto;html=1;entryX=0.5;entryY=1;entryDx=0;entryDy=0;" edge="1" parent="1" source="1-Zycqq-4m_5n2CwUNeE-18" target="1-Zycqq-4m_5n2CwUNeE-21">
          <mxGeometry relative="1" as="geometry" />
        </mxCell>
        <mxCell id="1-Zycqq-4m_5n2CwUNeE-23" value="&lt;div&gt;&amp;lt;784&amp;gt;&lt;/div&gt;&lt;div&gt;fp32&lt;/div&gt;" style="edgeLabel;html=1;align=center;verticalAlign=middle;resizable=0;points=[];" vertex="1" connectable="0" parent="1-Zycqq-4m_5n2CwUNeE-22">
          <mxGeometry x="0.1436" y="-2" relative="1" as="geometry">
            <mxPoint x="-2" y="-97" as="offset" />
          </mxGeometry>
        </mxCell>
        <mxCell id="1-Zycqq-4m_5n2CwUNeE-18" value="&lt;div&gt;Basis LUT&lt;/div&gt;&lt;div&gt;&lt;br&gt;&lt;/div&gt;&lt;div&gt;[-127, 127]&amp;nbsp;&lt;/div&gt;&lt;div&gt;256*(gs+k)&lt;/div&gt;" style="whiteSpace=wrap;html=1;" vertex="1" parent="1">
          <mxGeometry x="169" y="345" width="120" height="70" as="geometry" />
        </mxCell>
        <mxCell id="1-Zycqq-4m_5n2CwUNeE-25" style="edgeStyle=orthogonalEdgeStyle;rounded=0;orthogonalLoop=1;jettySize=auto;html=1;" edge="1" parent="1" source="1-Zycqq-4m_5n2CwUNeE-21" target="1-Zycqq-4m_5n2CwUNeE-24">
          <mxGeometry relative="1" as="geometry" />
        </mxCell>
        <mxCell id="1-Zycqq-4m_5n2CwUNeE-27" value="&lt;div&gt;&amp;lt;24&amp;gt;&lt;/div&gt;&lt;div&gt;fp32&lt;/div&gt;" style="edgeLabel;html=1;align=center;verticalAlign=middle;resizable=0;points=[];" vertex="1" connectable="0" parent="1-Zycqq-4m_5n2CwUNeE-25">
          <mxGeometry x="0.1552" y="-2" relative="1" as="geometry">
            <mxPoint x="-6" y="-2" as="offset" />
          </mxGeometry>
        </mxCell>
        <mxCell id="1-Zycqq-4m_5n2CwUNeE-21" value="&lt;div&gt;Layer-1 FP32&lt;/div&gt;&lt;div&gt;&amp;nbsp;&lt;/div&gt;&lt;div&gt;[784, 24]&lt;/div&gt;" style="whiteSpace=wrap;html=1;" vertex="1" parent="1">
          <mxGeometry x="253" y="440" width="120" height="90" as="geometry" />
        </mxCell>
        <mxCell id="1-Zycqq-4m_5n2CwUNeE-28" style="edgeStyle=orthogonalEdgeStyle;rounded=0;orthogonalLoop=1;jettySize=auto;html=1;entryX=1;entryY=0.5;entryDx=0;entryDy=0;" edge="1" parent="1" source="1-Zycqq-4m_5n2CwUNeE-24" target="1-Zycqq-4m_5n2CwUNeE-18">
          <mxGeometry relative="1" as="geometry">
            <Array as="points">
              <mxPoint x="469" y="380" />
            </Array>
          </mxGeometry>
        </mxCell>
        <mxCell id="1-Zycqq-4m_5n2CwUNeE-37" value="&lt;div&gt;&amp;lt;24&amp;gt;&lt;/div&gt;&lt;div&gt;int8&lt;/div&gt;" style="edgeLabel;html=1;align=center;verticalAlign=middle;resizable=0;points=[];" vertex="1" connectable="0" parent="1-Zycqq-4m_5n2CwUNeE-28">
          <mxGeometry x="0.2144" relative="1" as="geometry">
            <mxPoint as="offset" />
          </mxGeometry>
        </mxCell>
        <mxCell id="1-Zycqq-4m_5n2CwUNeE-24" value="&lt;div&gt;Requantize&lt;/div&gt;&lt;div&gt;FP32-&amp;gt;INT8&lt;/div&gt;&lt;div&gt;[-2, 2], b=8&lt;/div&gt;" style="whiteSpace=wrap;html=1;" vertex="1" parent="1">
          <mxGeometry x="429" y="455" width="80" height="60" as="geometry" />
        </mxCell>
        <mxCell id="1-Zycqq-4m_5n2CwUNeE-35" style="edgeStyle=orthogonalEdgeStyle;rounded=0;orthogonalLoop=1;jettySize=auto;html=1;" edge="1" parent="1" source="1-Zycqq-4m_5n2CwUNeE-29">
          <mxGeometry relative="1" as="geometry">
            <mxPoint x="709" y="485" as="targetPoint" />
          </mxGeometry>
        </mxCell>
        <mxCell id="1-Zycqq-4m_5n2CwUNeE-36" value="&lt;div&gt;&amp;lt;10&amp;gt;&lt;/div&gt;&lt;div&gt;fp32&lt;/div&gt;" style="edgeLabel;html=1;align=center;verticalAlign=middle;resizable=0;points=[];" vertex="1" connectable="0" parent="1-Zycqq-4m_5n2CwUNeE-35">
          <mxGeometry x="-0.1135" y="-1" relative="1" as="geometry">
            <mxPoint as="offset" />
          </mxGeometry>
        </mxCell>
        <mxCell id="1-Zycqq-4m_5n2CwUNeE-29" value="&lt;div&gt;Layer-2 FP32&lt;/div&gt;&lt;div&gt;&lt;br&gt;&lt;/div&gt;&lt;div&gt;[24,10]&lt;/div&gt;" style="whiteSpace=wrap;html=1;" vertex="1" parent="1">
          <mxGeometry x="529" y="440" width="120" height="90" as="geometry" />
        </mxCell>
        <mxCell id="1-Zycqq-4m_5n2CwUNeE-33" style="edgeStyle=orthogonalEdgeStyle;rounded=0;orthogonalLoop=1;jettySize=auto;html=1;entryX=0.5;entryY=1;entryDx=0;entryDy=0;" edge="1" parent="1" target="1-Zycqq-4m_5n2CwUNeE-29">
          <mxGeometry relative="1" as="geometry">
            <mxPoint x="309" y="550" as="sourcePoint" />
            <mxPoint x="443" y="715" as="targetPoint" />
          </mxGeometry>
        </mxCell>
        <mxCell id="1-Zycqq-4m_5n2CwUNeE-39" value="&lt;div&gt;x&amp;nbsp;&lt;/div&gt;&lt;div&gt;int8&lt;/div&gt;&lt;div&gt;[-2,2]&lt;/div&gt;" style="text;html=1;align=center;verticalAlign=middle;resizable=0;points=[];autosize=1;strokeColor=none;fillColor=none;" vertex="1" parent="1">
          <mxGeometry x="60" y="350" width="50" height="60" as="geometry" />
        </mxCell>
        <mxCell id="1-Zycqq-4m_5n2CwUNeE-46" value="" style="group" vertex="1" connectable="0" parent="1">
          <mxGeometry x="40" y="40" width="750" height="180" as="geometry" />
        </mxCell>
        <mxCell id="1-Zycqq-4m_5n2CwUNeE-42" value="" style="endArrow=none;dashed=1;html=1;rounded=0;" edge="1" parent="1-Zycqq-4m_5n2CwUNeE-46">
          <mxGeometry width="50" height="50" relative="1" as="geometry">
            <mxPoint x="5.213505461767648" y="180" as="sourcePoint" />
            <mxPoint x="5.213505461767648" as="targetPoint" />
          </mxGeometry>
        </mxCell>
        <mxCell id="1-Zycqq-4m_5n2CwUNeE-43" value="" style="endArrow=none;dashed=1;html=1;rounded=0;" edge="1" parent="1-Zycqq-4m_5n2CwUNeE-46">
          <mxGeometry width="50" height="50" relative="1" as="geometry">
            <mxPoint x="750" y="180" as="sourcePoint" />
            <mxPoint x="5.213505461767648" y="180" as="targetPoint" />
          </mxGeometry>
        </mxCell>
        <mxCell id="1-Zycqq-4m_5n2CwUNeE-44" value="" style="endArrow=none;dashed=1;html=1;rounded=0;" edge="1" parent="1-Zycqq-4m_5n2CwUNeE-46">
          <mxGeometry width="50" height="50" relative="1" as="geometry">
            <mxPoint x="744.7864945382324" as="sourcePoint" />
            <mxPoint as="targetPoint" />
          </mxGeometry>
        </mxCell>
        <mxCell id="1-Zycqq-4m_5n2CwUNeE-45" value="" style="endArrow=none;dashed=1;html=1;rounded=0;" edge="1" parent="1-Zycqq-4m_5n2CwUNeE-46">
          <mxGeometry width="50" height="50" relative="1" as="geometry">
            <mxPoint x="750" y="180" as="sourcePoint" />
            <mxPoint x="750" as="targetPoint" />
          </mxGeometry>
        </mxCell>
        <mxCell id="1-Zycqq-4m_5n2CwUNeE-47" value="" style="group" vertex="1" connectable="0" parent="1">
          <mxGeometry x="40" y="250" width="750" height="410" as="geometry" />
        </mxCell>
        <mxCell id="1-Zycqq-4m_5n2CwUNeE-48" value="" style="endArrow=none;dashed=1;html=1;rounded=0;" edge="1" parent="1-Zycqq-4m_5n2CwUNeE-47">
          <mxGeometry width="50" height="50" relative="1" as="geometry">
            <mxPoint x="5.213505461767648" y="410.00000000000006" as="sourcePoint" />
            <mxPoint x="5.213505461767648" as="targetPoint" />
          </mxGeometry>
        </mxCell>
        <mxCell id="1-Zycqq-4m_5n2CwUNeE-49" value="" style="endArrow=none;dashed=1;html=1;rounded=0;" edge="1" parent="1-Zycqq-4m_5n2CwUNeE-47">
          <mxGeometry width="50" height="50" relative="1" as="geometry">
            <mxPoint x="750" y="410.00000000000006" as="sourcePoint" />
            <mxPoint x="5.213505461767648" y="410.00000000000006" as="targetPoint" />
          </mxGeometry>
        </mxCell>
        <mxCell id="1-Zycqq-4m_5n2CwUNeE-50" value="" style="endArrow=none;dashed=1;html=1;rounded=0;" edge="1" parent="1-Zycqq-4m_5n2CwUNeE-47">
          <mxGeometry width="50" height="50" relative="1" as="geometry">
            <mxPoint x="744.7864945382324" as="sourcePoint" />
            <mxPoint as="targetPoint" />
          </mxGeometry>
        </mxCell>
        <mxCell id="1-Zycqq-4m_5n2CwUNeE-51" value="" style="endArrow=none;dashed=1;html=1;rounded=0;" edge="1" parent="1-Zycqq-4m_5n2CwUNeE-47">
          <mxGeometry width="50" height="50" relative="1" as="geometry">
            <mxPoint x="750" y="410.00000000000006" as="sourcePoint" />
            <mxPoint x="750" as="targetPoint" />
          </mxGeometry>
        </mxCell>
        <mxCell id="1-Zycqq-4m_5n2CwUNeE-41" value="&lt;div align=&quot;left&quot;&gt;&lt;ul&gt;&lt;li&gt;Basis functions are sampled but not quantized&lt;/li&gt;&lt;li&gt;Hence, the output from the LUT (the chosen sampled value) is still in floating point&lt;/li&gt;&lt;li&gt;That floating point number is multiplied with the floating point weight resulting in a fp32 result&lt;/li&gt;&lt;li&gt;The result in the hidden layer is then Requantized to be used for LUT reference for the next layer&lt;/li&gt;&lt;/ul&gt;&lt;/div&gt;" style="text;html=1;align=left;verticalAlign=middle;resizable=0;points=[];autosize=1;strokeColor=none;fillColor=none;labelBackgroundColor=none;labelBorderColor=none;textShadow=0;" vertex="1" parent="1-Zycqq-4m_5n2CwUNeE-47">
          <mxGeometry x="10" y="312.15909090909093" width="620" height="100" as="geometry" />
        </mxCell>
        <mxCell id="1-Zycqq-4m_5n2CwUNeE-1" value="Initial Quantization" style="text;html=1;align=center;verticalAlign=middle;resizable=0;points=[];autosize=1;strokeColor=none;fillColor=none;" vertex="1" parent="1-Zycqq-4m_5n2CwUNeE-47">
          <mxGeometry x="10" y="10" width="140" height="30" as="geometry" />
        </mxCell>
        <mxCell id="1-Zycqq-4m_5n2CwUNeE-40" value="" style="shape=image;verticalLabelPosition=bottom;labelBackgroundColor=default;verticalAlign=top;aspect=fixed;imageAspect=0;image=data:image/png,iVBORw0KGgoAAAANSUhEUgAAAoIAAAGZCAIAAACSa8eHAAAAA3NCSVQICAjb4U/gAAAgAElEQVR4XuydCVxU1ffAz7DIIioQqP8098rctTTNSNMyl35pWVJmLuFWLiWapiyKggsKZKGIGyRKooYLiAqy444omIqgIoLsMMM6+7z/53HlNbE5A7O98Xw/8/FzfXPP3d5lznv3nnsOh6IoQBAEQRBEGxhoo1IEQRAEQWhQDSMIgiCI1kA1jCAIgiBaA9UwgiAIgmgNVMMIgiAIojVQDSMIgiCI1kA1jCAIgiBaA9UwgiAIgmgNVMMIgiAIojVQDSMIgiCI1kA1jCAIgiBaA9UwgiAIgmgNVMMIgiAIojVQDSMIgiCI1kA1jCAIgiBaA9UwgiAIgmgNVMMIgiAIojVQDSMIgiCI1kA1jCAIgiBaA9UwgiAIgmgNVMMIgiAIojVQDSMIgiCI1kA1jCAIgiBaA9UwgiAIgmgNVMMIgiAIojVQDSMIgiCI1kA1jCAIgiBaA9UwgiAIgmgNVMMIgiAIojVQDSMIgiCI1kA1jCAIgiBaA9UwgiAIgmgNVMMIgiAIojVQDSMIgiCI1kA1jCAIgiBaA9UwgiAIgmgNVMMIgiAIojVQDSMIgiCI1kA1jCAIgiBaA9UwgiAIgmgNVMMIgiAIojVQDSMIgiCI1kA1jCAIgiBaA9UwgvwHf3//+/fv46AgCKIZUA0jyHMoigoICHBycqqsrMRBQRBEM6AaRpDn8Hg8S0vLWbNm8fl8HBQEQTSDkWaqQRCaZcvAwQGGDNHN0bCysvr8888jIyPrNY/P5xcXF8tkMt1stiJwOBwTExOBQKBIZl3G1NSU7b2gKMrMzEwoFFIUpctD3TwURZmYmEhraT6njmNgYGBra2tmZqbFdqIaRjRIeDj4+sK0abB+vc4q44b4+Pj8/fff/fr1Y+kvDofDqampuX79+vjx4yUSScMOsojo6Ohx48ZxOBwWtbkeRkZGsbGxw4YNs7CwYK8mNjY2vnHjhq2tbbdu3Vj6dwFA34s7d+58++23q1atqn+fNAiqYaQBSv3GWViAjU2DIpogN5f+4tQp+jN3Ljg5QZ8+TWTVIfh8/po1a2bMmKFDbVKSvLw8BweHQ4cOKSmnc9jZ2R05csTAgN27aZ999tnOnTt79Oihc+OrDKtXr7azs/vf//6njJDOERQUlJ2drd1moRpGWkdVFf1pAadOQe/e8OuvYISTEEGQlxf8BUQaoNSWFY9HfxTEzo5+Ie7cGZYsgaVLwdJSQTlNMmnSpG7dummyRg3Qrl27r7/+WgMVqRsHBwdWr0gTZsyY0aFDB3WPFcIWUA0jrcPSUglt2rUrrFwJixeDqWnralUjn332mRpL1xLt2rWbM2eOlipXJVpfP1QJs2bNUkk52uXHH39s3769dtugH6AaRjRIYiIuQSOtYc2aNXrwNnzx4sWRI0daWFi0Zii0Dtv3tnUHdls6ICwDt4G1BI/H8/Ly0lLlqsRUh9dRFEcgELD6/BtBJpOx19Jbp0A1jCD6j4WFBastvRnu3LmjB3fr008/1YPl3ICAgOvXr+vB7dA6uCiNIPqPkZHRa6+9pgf9jI2NHTBggB6sS+sBDg4OetALXQDfhhFE/5FKpaWlpXrQz+XLl+uBDnZ3dy8sLNSD24GoBFTDCKL/VFRU+Pv7638/WYKjo6OtrS1LGtskKSkpucQhD9I6UA0jiP5jZWW1bt06Pejn1q1b9cAsyNzcnO2OwACgurpaJBLpwaTSOrg3jCAIa7C3t9eDRemMjIzu3bubmJiwZtwbw87OrrHLiNLg2zCC6D+VlZXBwcF60M+ePXvqQS/i4uKqWuYCFtFHUA0jiP5jbGysHwqsrKxMD+7WwoULX3nlFbZ3JDAw8MaNG2zvhS6AahhB9B9TU9NRo0bpQT+9vb31YG9YP7C3tx+iq7HD2QWqYQR5KdAP7eXu7q4He8O7du0qKSlh+7QzMzMzNjZmey90ATTRQhD9obgYsrLA0JDuEUVBmzYwaBCdLisr8/Hx2bRpk/50lc1MnjxZD7xo5ebmWlhYWKozTppUCqmp/4Z8k8ngjTdA/2JToRpGEH3g2DHIyAA+H0pKwKBukcvQELp0oX/FzMysN27UBx0cFBQ0a9Ystr8Q68c+/fXr1/v06aMONVxTAzt30n+VMhk8e/avGqYo6NiR9kz/7rvwySf68GdLQDWMICymtJSO3VxVBR9/DG++Cb17w7Bh/3ZHIICwMFori0Tw+ef0h+3RDvXDJWdFRUXbtm0NyaoFa/niiy/U0XYvL0hKgm+/pZWusTGsXfvvYyUA/VVhIdy8Cb/9RsdN/f13MDNTRys0Cqph5KUjMzMzOTmZw+G8/vrrb7/9NtN/oVAYFhZGUZSxsfHUqVN1/JWruBji4yE2Fjw9wdwc2renl6DrYWoKX31FX6vhC617/JOd8bbXDhg+Aj74oH5OtjB27Fi2NLUZfH1958+f37Fjx2byvIRERsK1a/Sy8+HD0LZt4wPw/vv0dYGAjlr+7Bn8+iuMHUs/g7I6aCSqYeTlIicnZ+/eveS4SEpKCkVR77zzDhkCHx8fiURiaGgoFAqfPXu2ZMkSnR0agQC2baM3ydasgW7dXtxM2Sa3cv89C08dD+ow/swZKCuDadNeLIWoCf3waBYaGtqnT59BxPqgdVy6BPv20TP57bdh6tQXl2VqSn+srWH+fDhxgn45dnd/sZTOgmoYebnIysqqrKzcvn07AH36JTk5mVHDERER0dHRxsbGhYWFs2fP1k01zOfD06f0ityPP8LAgQrcu/BwWLHCwtd3xqJFEPzXd8d++CYhddsfZlVVMHo0sM4ZxqpVq7Zv367jCxUvCSNGjLBQxUtoZCTExMDKlfSuSsMVneYZOJD+xMfDzz/Dpk3Qrl3z2XUUVMOIBlm2DBwcQFfPGk6dOtXLy8vQ0FAkEk2fPl2D46IEFy7A6tX0WnSXLgpICQT0Mt/u3fSyHQCs/RUomdHZ007rvvb2ho0bYfZs+PBDBcrRGfRDB4eGho4fP74Dy01+u3bt2vp5ERZGz9CtW1tV0pgx9L6Miwv9YaNbFDw3jGiQ8HAYOpS2FLp9W4O1KkppaWnXrl27dev2f//3f8XFxYyYqampu7v7jBkzJk+efOPGjfz8/N9++418Gx0dffLkSZLev39/WloaSW/cuLG8vBwAJBKJs7MzuZiTk+Pl5UXScXFxJ06cIOmAgIBbt26RtLu7O5fLrbURlTGCeXl55PV94UJwckpauDCE6OBDhw4xbow2b95MjqJSFMUI0rtnd+7Axx9XV1dPmTIl9ORJcHSEI0eOhIba2V3194eEBBg3biuX+zzoHiNYXFy8ZcsW0qTr168HBQWR9NGjRy9dukTSnp6e+fn5JO3s7CyTycjJKA8PD3Lx5s2bgYGBJH38+PGEhASS3rFjBxOZx9nZWSqVAgCPx2POU6Wmph48eJBkDg0NjY2NJWkfH5+nT5+StIuLi1gsBqDNndzc3MjFf/75Z9++fSR9+vTpqKgokt65c+fjx49J2tXVVSgUksgEGzZsIBfv37+/Z88ekg4PDz9//jxJ+/r6ZmZmMoICgQAA+Hz++vXrycWMjIxdu3aR9Llz586ePUvSfn5+6enpJL1hw4bq6moA2vjA1dUVADp37pydne3r60syREZGnjlzhqT37t179+5dknZzc6usrAQAsVjs4uJCLj558kRb06/WQiopJCSEtMTf3//KlSsk3ej0Kygo2LZtG8lw5coVxp3qkSNHrl69CkD/Hnz33dYff1TB9Bs+XDZ3LvzwQ9nPP79g+vn4+Ny6dWt6LTNmzNi6daupqSlppNagEKQeAEp8LCyoHj0U/RgZ/Vvy3LlUZmb9qtVPfHz8okWLSD1eXl5+fn5MnXZ2diKRiKKogoKCCRMmMNddXV337NlTXl6en58vEAgkEgmPxyPf1tTUVFVVkXRFRYVQKCTpsrIyqVRKUZRMJisrKyMXxWIxI8jn8+UFBQIBycPlcokgRVGlpaWMYFUVNy2N+vJLKj+fLxJVMjXKC0okEnKdEaQKCqj586nCQhlF5efnV/H5VEICtWJFpUhEBGUyaskSbkhIfUGJRMLlcklpAoGgsvJ5jZWVlXw+n2lqwxqlUqm8YEVFBclcVVXFCPJ4PLFYXK+pUqmUGSihUCgvWFNTQzLzeLyYmBiSLisrk8lkFFVfsLy8nKlRXpDcWYpqXFAkEjGC1bWQQsrLyxsKyt/T1gjKzyL5GhWfRRqbfsw95fP5zGT4448/EhMTm5kM8rNIXrCyslImEyQlUbNmURIJVyZT2fTLypK+9x53wwaqqooSi5ucfkKhsKCW8vLy33//3d3dnfRCW6AaRhqglBpucWZLS2rTJqru51hjtEANOzs7h4SEaKyFjZKcTC1fThUXN/plsxw9Sg0YQBUV0ZnCw6n/+z+qTqcybNxIBQU1W4jOEBAQQLQvwmokEmrVKio6Wi2duHiRWrGCqn2ifjGHDh3atGnTi/OpE9wbRhpAUQ0uNQ2PR38UxM4OcnOhc2f6rOvSpaBO/ztNYWdnd/fu3XHjxnE4nPfff3/58uW5ubmHDh1at27dH3/88dlnnwGAiYmJn59fUyVonlu34NAhcHNr0YBNngx9+0pWrHiWlNR9+XJ6GbrBWRAXF/p0ZnAwzJyp+c4px9y5c5UT0Enc3NwWL17cqVMnnWyd2ikvB2dnerKpyc35+PG0DWN6umI2jDoARz88zSLsYNQosLenT/xpdTOGrBUDAIfDIdHXZTIZSZB9SgCQd63g4uIycODAGTNmaGuQ7ewgLu65i8qWwSsrCzh4cMWqVU2Jx8bSG3Vubuw+f8kWmPnGahITE7t06dKrVy+lelFSQp+1mzULBg9WSk45BAJYtYr2AfJCTR8UFJSdnf2vOYU2QBMtRIMkJtIHC7Sqg4n2NayFqF4AYBLkuk65N9q+HX74oVU6GAAsra2b0cEAtL3055/TzhBqjZB0F1dXVz14c2DmG6tp27ZtG2UPGAF9uEgqVa8OBqB/YzZtot2AsCISI6phRIMY4SaIEkilsGMHvPaahtaK338fFi2iNXFpqRKN1DDLly/Xg0PDycnJNTU1Gh46lTNs2DBlzyxFR8OVK/Ss1gBWVtC/P30iWfdBNYwgOkpaGn2w6+uvVdC88vJyf3//FxY0cCD06wcBAS/MqDVsbGy0VrfqyMjIEIlEqiuPHYSFQVQUfUSYCT2ibn78kT5G3MpDyRoA1TCC6CLFxeDvT++iqQQzMzM7OztFipo9m3Z1WXccVOfIzs7WuTYpz8yZM9URmEjDHDhw4Nq1awpWGhlJe55xd9f0itj8+WBrC3XHvHUUVMMIoossWEB72lDIVZYCtGnTpl+/fgpkpDfVNm+mHXXV+sbQOY4cOaIHe8P6wbx580aMGKFIXyQS2lXW+PGa1sGEsWOhqIh2AauzoBpGEJ3jzBk6oqqSJqjNQVG0F47mcvyXn37S0Aaesqxbt04P9oa3b98u76aNpRgYGCh4L54+hcuXaRtArdC7Nz2fN2/WXaMHVMMIoltcuQIhIfRBXhUatHG53K3KbJF9+SV9cmnzZt0aGb1h3rx5VlZWbO/OgwcPioqKXtiL7Gza2v/IkRdmVCN9+9Lr0t9+q8YqWgOqYQTRIWQy+lV41iwVN8na2prxn6wgEyfSRzyfPVMwu4bYtWuXHixK29jYGKnwIUtLZGVllZWVvbByDw9a/1lbvzCjerGxAZ01Tkc1jCA6xPz5MG4cTJqk/Sa9/jrtTq0uHIOuMHr0aAUXQnWZ/Px8EpeC1UycOLFv377Nd+HMGVr/vf9+87k0gbExfRhPN8MSoxpGEF3h/n063uq776q+PdXV1UzwH8Xx8aGbVBc0SCcYoqtRMpXir7/+4inuApa1CIX0lvB77+lKByZPppXx3r260h4GVMMIoiscPgwffQTt26u+PRwO7TisBeUuXQo7d7ZATl2QGIVsx9HR0dbWlu29CA4OTklJaaYXq1bRVsqfftpMFk3z9deQkgIFBZqut3lQDSOIThAdTR/Y/fJLtTTG3Nx84sSJLSi6Y0f6JHFdrFvt4+Liogd7w/rBpEmTmlmUfvIE8vJgwgTd6mv37mBurnNbLaiGEUT7iMW0c4MvvtB+SxoyejRUV9O/qrqAp6enHuwNBwYGcrlcXRjP1mBlZWVubt5UCc7O9EdjDrMUx9ubDr4UEqK4hNpBNYwg2mfpUpgyBT7+WF0tKSsrW99ST0I9e9I+PWJj1dW2l5ChQ4eaajvASevhcrlNecY+dow28Rs6tPWVqIUZM+gW6g6ohhFE+zx6BIMGqbEZVlZWTk5OLa5g82baA8OZMy0uQGWEhYXpwaL04MGDzczMVDYoWuLcuXPp6ekNK6+poeMavTDCoBbp25d+5PXx0WIT/gNGvEFeOqRSqUQiIUGF5Y9vUhTFONw3MTHR2LgcPUqfULK0VGOFHA6nBTHp5FmxAqZNg88+U2MjFYEJCM1qxGKxkZER21fXZ86c2ehdcHambZI/+qjRL3UFDue5u1YOR/tNwrdh5OVCKpXu3r17Si0bNmyQX1VLTk7+vJYZM2bcunVLM+MSFgZJSbBypXp/DkQi0Z07d1rTIyMj6NSJ9s2rXaZNm8Z27QUAW7ZsUcT/FBuhKPpVWMd1MAAd01NkAOcugkFGOr0YJZNpcbRRDSMvF5cuXbp79+7FWqytrQ8dOsT0f+XKladPn46IiDh8+HBycrIGxkUopF1XasAySyAQKB4Mp1HMzcHBgQ6ljrQeV1fXTp06tb4c7XL+/PmGi9LBwfSrMCtwHhhe6LBOfPsWZGSCqysEBWmr2aiGEQ2ybBkdQVdX4XA4fD7/6dOnFRUVCxYs0EAznz6F1FTabZa6ad++/fz581tZy4cfQrdutEW3FlmzZo0e7A3rBz179rT+r4/KoCDag/TatSzp37G/P3d7e+2D78y+mkKfrAoM1Fa7UQ0jGiQ8nLae/Pxz3VTGIpHo999/d3R0XLVqVVxcHDMuxsbGkZGRR44c2bt375MnTyIjI8lXFRUVMTExJJ2VlcWsYycnJz+tC6t28eLFqqoqkiciIoIkKisro6OjAWDxYti2LTsl5Sa5npKS8qTuYFB0dHRlZWU9werq6qioKHIxJyfnxo0bJH3r1q3Hjx+TdExMTHl5OSNIlJZAIEhKSiIXc3Nzr1+/TtKpqakPHz4k6bi4OMa1U0REhKx2mU4gEDD9LSnJmzjx6h9/0EvTd+/eyczMJILx8fGMb+Fz586R7VuhUHihTmMXFBRcqYtg/M8//zx48IAIJiYmlpSUkPS5c+fIhr1IJDp//jy5WFRUdOnSJZK+d+/e/fv3PTw8OBxOUlISE6Ho/PnzxDGkWCw+d+4cyVxcXJyYmEjS6enpd+/eJenLly8XFhaS9Pnz54kpgEQiYQRLS0sT6hx4ZmRk/PPPPyTzlStX8vPzSfrChQskXJVUKmXuKZfLjY+PJxkyMzPT0tJI+tq1a8/qHHNHRkby+XwAiIqKOlZnqsvj8WLrzNAfPXp0u+459fr167m5uaSQqKgosntCURRTY+unHwAdv/nmzRZOv4qKio4dOwLQ0+/Jk8diMWRmgkQSIxLVn341NTXMLGrx9MvLy7t69SoZkDt3Wj79MjIyqgAuzZ6dzOfvp9rkZ1wwBA588AEsWQKtMGNsDWiihTRAKaMFCwvaaayCkJ+VU6foz9y59KTv00dBUQ3A5/P79+/v7OxcWFg4e/bssWPHMpUKBIKqqqrq6mqxWEx+SQFAJpMx0QMlEglj3iUSiYhGAaDLZN7eGEGKojgc/pEjMHUqmJlJKitFpCKhUMgICgQCogiZQjgcjiI11hMkJZeVlXl4eBBlI5VKGV9UIpGIMUZrVJCiKKbZIpG0slL488/g7w+ffSbicJ675ZIXZPba5QWlUikzUPK+lBv2EaC+INNUsVjM4XCISZ1QKGRstRodYZlMJi/IZBYIBC8UlG8qc08VqbHRydCoIJ/Pr66uJrdGkXvK5/PlJ4NSgo1OP+aeys9bZacf09/aUZKkpUFhIXz3naC6WtamzfN5S5oqH2ezxdOvniDjFU7Z6WdgYEDaI5PJTE0r5swRCAS1ZlocjtZ2iCkEqQeAJj6WltSmTZRYXL92NRMfH79o0SJSiZeXl5+fH1OhnZ2dSCSiKKqgoGDChAnMdWdn55CQENW2Syym5s+nkpNVW2qTSCSS4uLiJr9WBj6f+uADZQRUSlpamkrLQ1rO/v37r169ysifPEm5ura8NC3w/ffUhQuHgoM3bd5M3bhBffwxVfvnr3nwbRhpAEW/lCgKj0d/FMTOjn4h7tyZXv9ZulS9Z3SaoE+fPu3btye+LGpqar777rvy8vILFy7MmDFj2rRpbm5uhoaGYrH4SzV5lawjOJj2q/f22020UtUYGhraKL5o0SwmJjBmDJw/T0dC1DyxsbEDBgzQA2NpPcDBwYHphVBIe6fStXhcL2DiRIiIoHezy8tpR7JffEFHftAGHLR3QDTHqFFgb0/viGrVhVBWVhbZuuvZs+egQYOqqqoyMjKGDRsmEomioqIoijI2Np4wYQLzW+/i4jJw4MAZM2aoaqAKC2HdOti6FTTm3l8qlfJ4vFdeeUUlXbh6FXbvBjkbc0Q53N3dFyxYoAfG0gxOTrSl4fjxyo2DLhC0cmV2QYFzYKC2dDAA7g0jmiQxkT5/qm161sK0wsLCYtiwYQDQpk2bKVOmaKB1NTVQUqI5HQxAm/P4+/uvW7dOJb0bORJiYuDgQfj+e5WU99Lh6OioB84sU1JSOnbs2LVr102baBsPNupgmiFD6BdiLb0HE9BSGtEgOqCDdYG9e+kVAU1iZWWlKh1M+OILSEujV/I0zNatW/VgAc/c3NxAB4MeKEl1dTUxYZNKtbu8xXpQDSOIRikooBWYrgWAU5a+felDz6Wlysq1Fnt7ez3YGM7IyNCDwMl2dna9evVKSqIDGn7zTWvv7MsMqmEE0SirV8PGjWD4/LCPhqisrAwODlZtZf/7H5w+rdoiX4z8bgJ7iYuLY06TsxqZDOLiaI/oSGtANYwgmiMigt5FGzxYczUSjI2NVa7A5s2DV16BloZPbCGMnxBWs3DhQlWZy2mRQ4cCIyJuJCTQ/niQ1oBqGEE0R3Y2tGunhS1yU1PTUWqIPDduHL0gqcl4D97e3nqwN6wfzJ5tv3PnkIAA/eiNNkE1jCAaorgY7t/XmuN7dWiv7t3pN/uQEA0NIAB91EcP9oZ37drFePFkL+HhZmPHGrM/RIX2QTWMIBoiNRVEInjzTQ1VJ09ZWZmrq6s6Kra2hlo3yYgSTJ48uX379koI6CQJCTBokBaWdvQPVMMIogkoCtzcYM8eTdTVEGtr603qCVI4cyb9eJGa2rBOtRAUFKSO13oN07NnzzbE7TJrycujp7RWnin1D1TDCKIJ1q+H5cs1UZHmadOGfsvXDK+99ppmKlIrFRUVTIQJlnLpEh0K4Y03WNp83QLVMIKonaIiyMmhXXlqC/lAhypn3z74+WcNBacZO3asHuwN+/r6lmr+zLXqKCmh13U8PVVX4ssNqmEEUTuHDtE6uGtXtVfUFBKJhIl6q3KMjOil6b17VV6w3rJu3ToSqZelHDxIR2YJCwtlwiojrQHVMIKoHbFYK9Gk/sXCwsLe3l59/ZwyBS5eBIlEfTU8Z9WqVXqwN8x2zp2DTz6BYcNGdOvWje190QVQDSOIerlxAx48ANXFZ9JFevSgNfGOHWpv2/bt2/VgUTo0NLS8vFztg6VOpFLo0qWrpaWlOit5WUA1jCBqRCajYwKuWqXGKhSBy+W6u7srkrPFGBoqF6i6ZeiBDgYAW1tbI9aGOfH1pZ8p27UDPp8vFotbdh8ReVANI4gauXWLLnzAADVWoQgdOnRYunSpIjlbzOzZtHOSK1daXIBCJCYm6sGitJ2dXdu2bRXqsI5RVUXfZWJsGBIScvv2bR1rICtBNYy8dMTGxi5YsGDhwoV//fVXo53fvXs3ieDWejZsoD9ax8DAQAPrh7Nn08EeZDI1dvfRo0dqLB15EWFhdJzsIUPofHPnzh0+fPiLJJAXg2oYebm4devWsWPHli1btmTJkgcPHpw4caJe/zdu3Lhy5Ur9WPxkkEgk2dnZ6r7TH31E+/HIzVVjPXPnztWDW+Pm5lZYWKjGYVIPhYUQHg6/rAYoK6EfuCZPhmnT6AUfHk89Fb4soBpGNMiyZaDtVazKykqKogYNGjR48OD27dvXc+2bm5tbVVVla2srU8U73d270Lu3lm2kCVVVVaGhoRq40/v3w+LFGqiH3bi6unZioS9mkQjKy6GtOcAnk+DevUQXl8eenuDiohMLPmwG1TCiQcLDYehQOi6atpVxU0RHR9vY2AwZMkQid/iGw+HU1NSIxeKKWpi9yerqalKOTCarqakhaYlEIhAISPrYMeGIEeIOHej/8fl8RrUzghRFNSooFAoZ4xelBEW1kNr5fD7jqsnY2Pjnn38G+E+NUqmUaWpTgtXV1aS/8k2VSqX8OkfS8oIiEV0jh0PXX1NTwwgy/W1KUCAQME1lBAH+HShGcP369UKhkOmjQCBg7lSjgjKZjGmqWCwWCoVkcFQl2PCeyk8G+RqFQiHTVJlM9sJZxDRVfjLU1LygRvnp1+JZ1JTg1q2wxg0gcD/1/ffitWstTEzatGsHR48KDAzg6lUApWeRaqef/IRvfvrJZDLytyyRSJjpoUVQDSMN4HCU+LRrBz17Kvoh65WnTtHKeN48ePiwQd3a5OnTpxEREatXr66srJRvh6mpqaen54wZM2bNmjVz5kwul0u+3bRpE/kx5XK527dvJxdv3boVHBwMQJ9T8vI62afPZXL9999/z8vLYwSJ1uHxeJ51voju3LkTFBREMpw5cyYhIYGkfX19c3JySNrd3Z2o54qKiq1bt5KL9+7dCwwMJOnw8B3M4sgAACAASURBVPC4uDiS9vPzYxaiPTw8iGB1dfWWLVtIhvT09AMHDpD0uXPnoqOjSdrf3//x48ck7eHhQfQBn8/38PAgFzMzM/fv30/SkbWQ9L59+3NyMrt0AS4Xtm3bTH7ghEIhI/j48WN/f3+SOSYm5ty5cyR98ODB+/fvk/SWLVuqqqrIbzpj3Z2dnb17924A+OWXXxISEsLDw0nmP//88+7duyS9devWiooKAFoVMYI5OTm+vr4kQ2Ji4unTp0n68OHDjOsJT09PXu2yqlQqZTxv5+Xl7dy5k2S+fPkys5bw119/3SJ2dwA7duwg8Y8pimIECwsLf/vtNyJ4/fr148ePk3RISMiNGzdIevr06cytYQRLSkq8vLxIhuTk5KNHj5L0iRMnrl27RtK//fYbs5rd/PQDgJMnT16+rLLp9+gRlJbCqLcBbqZWdO68ycNj6LBhXf/v/9IqKgLDw6GgAEDL02///v2ZmZlkoDZvbm76lZaWfvPNN7Nmzfrqq6+8vb1NTU2JlNagEKQeAJr4WFpSmzZRYnH92tVMfHz8okWLSCVeXl5+fn5Mhb/++mv37t3Xrl3bsWNHHx8f5rqzs3NISIhS7ZJIqHXrqIsXlRJSIzweb8+ePWqsQI6QEMrZWTNVsZXjx4/zeDx2tX7ePOrq1domx8RQa9b8+5ebk0OtXk09esSu7jAcOnSIPNBoESOt6X9EZ6EoJZrG4ylhoGFnR78Qd+4MS5bQ3vC0cfbfzMyMoqicnByZTFZVVdW5c2cAePbsWZcuXezt7b/88kupVBoREfH+++8rMQgN4PPh8mWoe3vUPmZmZnZ2dpppx/TpEBdHn1xShw/t7Ozs7t27a6Yj6uPLL79UX+FqwsgITExqy/7wQzpQycqVB9q1G9Cnz7sHD8Lo0dCrl5rqfRlANYy0DktLJbRp166wciVtw6O9VaDhw4dzudxVq1ZxOJxPPvlk5syZeXl5p06dWrJkyRByDgPgm2++GThwYGvGJSYGxo5tTQEqpk2bNv369VNxoU1gaEj/LCclwciR9OaGajly5MjatWv1wFiaXezfD6+//vycEk1CAty7N2/DBk5eHpw/D+bm7OqOrsHRg7PwCGuQSNgYJdzFxWXgwIEzlHFH+cknEBQEHTvqyp2hKEooFGpyD2zcODh5Eoh5GlKP7du3z50719bWtv4XOklRER0qe80a0EsH0kFBQdnZ2c7OzlocezTRQjQIax34KUVhIb3u/nwFTzfgcrmMSZdmePNN2pM20ijz5s2zsrJq9CsdhMulDbAa6uAHDx4UFRXpYINZB6phBFEx3t7wxRe69SJobW29QbPevNzdwclJxQMLALt27dKDBTwbGxsW+ZQ+eRK++aaRW5mVlUUMxZFWgnvDCKJKEhJo+6xPP1VlmWzE0JDeMRSLwdhYlc0fPXq0HmwM5+fn29jYGKt2aNTG2bP0rG7IxIkTG15EWgC+DSOIyqAo2o3BqFG0EtIpqqurz549q8kmWVrCwoXw668qrpMxo2M1f/31FzmprPskJcG776re1A6RB9UwgqiMsjKIimp8BU+7cDgcQ40/GoweTXc6JUWVXWd8S7EaR0dHtthn+frCnDmND3ZwcHCKau/uywqqYQTRf8zNzTW/hGhpSdv11Ho5VBkuLi56sDfMFvbto0+dNXV2b9KkSX379mVLX3QZVMMIojKOHqUjoiMMP/1ER+JRYTAhT09PPdgbDgwMZFyi6jI1Nc1t7VtZWZnjiWFVgGoYQVSDRAJ//w1ff62a0lRLWVnZ+vXrVVsm0mKGDh2qyTPcLUYiac4zB5fLZQKTIK0B1TCCqIYVK2DtWjrUhQ5iZWXlpI7zQwrw/vu0X09VERYWpgeL0oMHDzYzM1PVmKiJW7foz7x5TRZ/7ty59PT0Jr9GFAYPLCGICkhJgbZtYfhwFRSlDjgcTps2bdRR8gtxdIQpU+jgliqBiYfIasRisZGRkY6vrh88CD/+2Nwwz5w5s7mvEYXBt2EEUQGZmdCmjRLetTWMSCS6c+eOhisltG0Lv/yispNL06ZN03HtpQhbtmzRcf9TmZmQnw/vvadIb5DWgmoYQfQfgUDAxKzVPBYWUF6u+Wp1F1dX106dOulu++i4zrBt2wsaeP78eVyUVgmohhEWIxAIbt68OXjwYDs7uytXrqxcuVIrnSkpoR3+LV+ulcoVon379vPnz1coqxoYPRpsbODiRRUUvWbNGj3YG9YPevbsaW1trR990S6ohhG2kp2dPWLEiA8++IDD4SQlJZmbm0dERCxatEgikWi4S/Hx8MYbtKZBGsXIiF6xLyho9EvlcHNz04NF6YsXL1ZVVSnXcw3y5Al06fJip+hvvvlmR90JIsZmUA0jbOXYsWN37tw5cuTIkiVLAKBHjx4uLi579+598uSJhrv0+++wbp2G61QOHo/n5eWlnIxK+eoruHEDeLzWFsqKcz4vRCAQyGSyF2bTFsHBMGLEix8rZTIZrkyoBFTDCLuZPHmysr9oeXl5CbU8fPhQvvNisfjSpUtJSUlXr15V/PeloIAOa6hxT5HKYWFhoVS8ZJXTty9kZalADWvL0Ey1fPrpp+3bt1dtmaoiORlycpp0YClPQEDA9evXVVXvywweWELYTXBwMPGWXFxcfObMmRd2pqioyNfXt7q6GgCMjY0dHBzeeustIuXn55eZmWloaCiVSrOysr5pNLpbA5yc4Oefm3M2pAsYGRm99tpr2m3JtGkQFgbLlrWqFbGxsQMGDNCDdWmdRSAAqVSh1jk4OCiUD3kRqIYRDbJsGTg4wJAhKqly3rx5YWFhCxcufPXVVwFgypQpGRkZLi4uffr0aab89PT0srKyPXv2AIC3t3d8fDyjhocPH7506VIDA4PCwsLZs2crqIYNDem9Tx1HKpXyeLxXXnlFi+387jv48ENYtIjeJ24xy3XZEE5h3N3dFyxYoIPG0iIR/PEHbN2qcE8QVYCL0ogGCQ+HoUNpVw63b7e+Vhsbm5iYmC+//PKtt96aOnVqly5dvLy8Nm7c2OKSR40aZWCg3F9EYCD06qW7XjsYKioq/P39WzwyKsHYGHbuhMWLVVIYu9HZCEtXrkDHjtCzp0LDm5KSkpubq1BWpFmU+9FBXgo4HCU+7drRf7UKfsgf7alTtDKeNw/+uzXbAoyMjIKDg8+dO3fq1KmYmBhHR8cWFNIQPz+/H374gbluamrq4+OzaNGib7/99ubNm+T63r17udwcDod+Fd69e5tYLAaAqqoqxhIqPT398OHDJPOFCxfi4+NJev/+/dnZ2STt6ekpEokAoKamZseOHeRiZmbmn3/+SdIXL16MiYkh6YCAgMePH5P09u3bBQIBAG3ss337dnLx8ePHAQEBJB0TE3Ox7oTQn3/+WVJSsq7WimzHjh3ED7BIJPL09CSZs7Oz9+/fT9Lx8fEXLlwg6cOHDzMHQ728vIhxr1gs3lZ3pDQnJ2fv3r0kc1JSUkREBEkHBwffu3ePpL29vSsqKmrT0q1171l5eXl+fn4kw5UrV8LCwkg6JCSE2f397bffSFBemUzGCK5YscLX15dkvn79+unTp0n6+PHjt+ue7Xbu3FlaWgoAFEUxgsXFxX/88QfJfPPmzdDQUJIODQ1l7ukff/xRXFxMrm/dupXYB5SWlu7cuZNcvH379vHjx0n69OnTzM7orl27CuviV2zdupUYK/B4vN9++41kvnPnTkhICEmHhYWlpqaSB749e/bk5eUxNRIfYRUVFd7e3uTivXv3goODSToiIiIpKYmk9+7dm5OTQ9Lbtqls+u3YAV99lRkU9OLpJ5PJampq5JvazPTLzMwkTdXi9JNK/51+paWlc+fOdXBwWLRoka+vr4mJCWme1qAQpB4AmvhYWlKbNlFicf3aX8TWrVuNjY2tra2trKy6du362muvWddiY2PTo0cPKyurR48eNVNGfHz8okWLSAYvLy8/Pz/5zNXV1WvXrg0PD5e/6Orq6unp+fDhw7S0tPLycvJVXl7OvXv8L76gpFLqyZPHxGpUIpFkZWWRDFVVVXl5eSRdUlJSVlZG0rm5uTU1NSSdlZUllUop6j+C1dXVz549YwRLS0ubESTb2CRDTU1Nbm4uSZeWlpaUlJD0s2fPqqurmRolEglFNSlYVlbGCObl5VVVVdUTlMlkjx8/Jhf5fH5OTg5Jc7nc4uJiks7Ly6usrCTpJ0+eiJ/fZdnZs48XLaLvuUgkePr0KSNYVFRE0vn5+Y0JUkyN6enp2dnZJDOPxyssLCTpgoKCiooKks7OzhaJRCTNCAqFQkawvLycESwsLGTuaXZ2tlAorCcoEokYwYqKioKCApKhsLCQx+OR9NOnTxsKisXiJ0+ekAyVlZX5+fkkXVpaeu3aNdLCp0+fCgQCpkYyi+oJMrOouLiYy+WSzDk5OXw+v55g66ffpElUZmZ1fr4eTj/5eUucyv3zzz+PHj3yqIWMpLbgKG4RiiCNwOMpYf9qZ0e/EHfuDEuWwNKlLfP9SN59TUxMLCwsjh49Wlpa6uDgQFH0j3JgYODEiROPHTvWrukACwkJCcHBwczesLm5+eK6dVI+n7958+aPPvpozJgx8j11cXEZOHBgQ0tjX18wNQXtecVQgsrKyrCwMF1wAuzlRTvVWrRIicbrH3v37p0+fbp2t+obcv06HD8Obm7NRVXSP4KCgrKzs52dnbXYNZ23LUF0HEtLJbRp166wciW9PWhq2uJuTaoFgF7c++OPP44fP84EtLe2tj5z5oxAIGhGDb/77rvXrl2bPHkyh8MZOHDgunXr8vPzg4KCVq9e/eOPP164cOHRo0dbt24dPnz4C7eZQ0Joxx2swNjYuKeCO35qZs4c2rY8N5eeCy2grKxMDzw3LVy4sAV9VzfHjsGoUUro4MDAwP79+w/X2Xgm7AHVMKJBEhNVaFWcnp5eVVUl/yswePBgb2/v8vJyW1vbpnplYmKyfPlyctbC1NTU3Ny8bdu2xAHI77//bmBgQFYLjY2NmyqBcPs2DBgASlp0aQ1TU9NRo0ZprXo5bGyAy4XKyha2xdvbe9OmTXhgSeVcvEhHF54+XYmC7e3tjXT/kAAbQBMtRIOo4Y/Wx8eHdKC8vJwxUGoeExMTsp1sbm4OAIaGhm3btgWAdu3atW3b1srKytraupn3aYKnJ8hZcbEA3dl+cnCAOhM0pXF3d9cDHbxr166SkhKlO69OFDwrLI+ZmdkLn1YRRUA1jLCV5cuXf/311x4eHp1q6dmzZ2Jior+/f/PnhlWCWAxmZq1ZWdc0ZWVlrq6umq61CT75BNLS6Dh6Ly2TJ0/WKS9alZWwdy+4uyt3Q3Jzc4kpO9JKcFEaYSsmJiZ//fVXjx49uFwuWUweO3bsrFmzNNCfPXvoI1dvvKGBqlSDtbX1pk2bVFOWKtixA376id6MVJagoKBZs2ax/YVYR/bpGaRS2s7SwkK5u3H9+vU+ffpYWloqJ4Y0ANUwwm62bNmi+Q7IZKD1o4YvJ1p3yakSKioq2rZtS5yw6gKbNkELLIW/+OILXWi8HoBqGGErWVlZ9+7dq2ckIpPJxowZQzZ91URqKly61JI3OS0iEAiSk5Pff/99LbZBng4dwNoaiopon01KMXbsWKXy6ya+vr7z58/XnSiBqaktUcOIqkA1jLCVEydOrF69umHrMzMz1bo9fOIEbWTELiQSybNnz3SnzV260J7FDx8GFfk9YxnEo5mOcOoUjB0LLQj4FBoa2qdPn0GDBulIR9gLmmghbGX+/Pn3799/UMvDhw8TExNNTU2XL1/eu3dv9XVJJoO4ONrIiF1YWFjY29vrVJvnz4f0dKhzeakoq1at0h2Tb/3g4kUYPbolkTpHjBjRrVs3/RgE7YJvwwhbsaqFaX3v3r39/f3nzJmzbNkytb4NIyrByAiEQqipUa6w7du3s90+C4B+jxw/fnyHDh2U67waCA2l34M//LAlRXdtmQcWpAH4NoywFYlEIpADgI46oO7ObN5MRxdmHVwu113Z8yjqZ9Uq2L+fXmBQHD3QwQBga2urB44v+Hy+Bv7iXgZQDSNsxcfHx0wODoczf/78119//YWeN1rDzZsweHBrCtAOHTp0WLp0qXbqbpqBA+lFaaUcRyQmJurBorSdnR3xGKN1nj2D119vYStCQkKYqFZIa8BFaYStjB8/nonxR5BKpVOnTlVfNPX4eOjXD159lX0jZmBgoB/nOx89eqQ79t5sp6AAzp6F8+db2I+5c+e2UBL5L6iGEbZy7969P//8MykpidljO3fu3MSJE+Pj47t3767aXnE4dHnR0bQf6VoPmCyDWEqrfFhaj4cHHW3p4EFFS9KPn343N7fFixer73lRQYqLoWnn64jmQDX8H3g83tOnT7t166bWVwfN1KLHhIWFlZSUnD179p9//jl48GC7du1kMpmJiUl8fHx2drY69quMjelYDnl5sHEjK8e1qqoqNDR0xYoVutb6gQPpx5p79+hlhpcHFxcXAx2ICrJsGUREtHzUExMTu3Tp0qtXr5YXgdSi9r3h3NxcHx+fsWPHcuqwt7ePiorSzfFfu3bt4MGD165dq9bmaaYWPWbHjh3ff//933//DQCOjo4LFixYtGjR3LlzAwICli9frmueAnUBS0tLHdTBAHSQzHffpe11FcTV1VUP9oZ1QQf7+8PMma1a2mnbtm2bNm0UvHFIM6j3bTgqKurbb78tLi4GABI1/e7du8dqGTNmzKlTp9T60tk8xIVNUVGRfLY3at0Ek39VgmZqedmIjY2VSCTHjx8/ePBgaGhohw4dZHXmtuRhT7UDwuHQZkRZWfDmm6otGKF59VXIyKCjZbwotiTN8uXL9cBYOjk5uV+/fmr19fZCUlLg229fmKs5hg0b1tzXiMKoUQ1nZmZOmDABgA4ROm/ePEbjpqWlLV++PD4+ftGiRSEhIQo3VcWQh4N6rKil/tVWoJlaXiouXLhw/vx5Hx+fHj16vPPOO5s3b5Z/PRKLxU5OTjY2Nqodk+pq+OsvOHdOtaVqjvLy8qNHjy5atEhzVSrM+PFw/DhcuQIffPBiGZXfWa2QkZHRp08f7aphRHdQoxp2rnUW7u3tXU+xDRo06PDhw8OGDTt27JiTkxP6QkOU4ubNm7t37/bx8UlJSfH09KwXME4kEi1btqxlP9ZSqTQzM5PeqjEweP3115m3LjMz+MERkqKVaqZuYWZmZmdnp1ttksPaGsrLFWpddna2DhqaKcvMmTOVFVEtp0/TY67Ic08zHDhwYMCAAe+++24zeRCFoNRDRkYGqZ7L5TZag5OTEwA4OTkx35JT7fUyk6Vs+Ys5OTlOTk79+/cn5S9evDg1NVU+w+LFiwFokcjISJLN1tbW29ubaQkpsx6khBMnTgDQzorJfw8cOFA/n9y3pAqmtP79+x84cKAFtRBIv2zrLBdnzJgRGRkp3y/SttRamEoXL16ck5Mjn02nWbqUunVLZ1t49OjR7777bvbs2XPmzImIiHjeTi7XfdL4t2Eev0yqsy3XA8aMoaqqXtwPDw8PmUz24nxI0wiF1Pr1VHh40zkUQyqV6sG9OHTo0KZNmxTrsbpQlxomOmPGjBlNNfzy5csAMGbMGCYDUXj18tdTw6mpqba1ODk5HThwgOhyAFo5MYJEhHzVv39/eY1F8kRGRjL69UAd5Cty/cCB5/+NjKS1LAPRkYySJvp+zJgxpAyi8pkuK14LRT0fDYDnDR4zZgwZDfnHFNI20i9bW9sZM563p3///k096+gcPXpQANS0aapSxlKpVNKAFvfazs5OJBJRFFVQUDBhwgS6nF9+oX74wXnqtBDHxdTX9tTu3S0uXLvIZDI+n6/dNjTPhx9SFRXNZ9EfPD09i4qKtNWfx4+pzz7TVuU6hz6rYaIzvL29mxr11NTUenpXETUcGRm5ePFiea1D9L28umL0LqMvmVdz+RfHRqurp4blIYXI67wxY8ZcvnyZycPlcokmVrYWLpdbT8FT1PMHDvknDObRwcnJiYwAU2O99+bWAqDEx8KCVq4KfoyM/i157lwqM7M1TS0tLR03bhwAGMsBAA8fPmxZsf9Rw5MmUeXl1PTpVFGR8/r1IX//Td25Qy1bptArm+5RWlq6fv163WvXv2RkUJMn63IDVUlxcbFYLFZlicpw4QL9eNl60tPTCwsLW1+OdtEFNazeA0sq913+8ccf+/n5ydtXv17rio1s6clz4sSJ6dOnkyuvv/46eXMtKyv7TyZlWLBgAQAEBwcztcfFxY0aNYopw9LSkqhhZWu5ceNGcXHxjBkzmAYD0Dvo5NzUsWPH5Ju5ePFid3d30gZLS0s3NzcAWvEr0xWVUlUFT54o+pFI/q371Ck4evQ/V5TkwIEDMTExv/76q4uLi3Mdrq6u8vEeWo6FBezYAfPmga2tiZHRPj+/FadOnUxNpXfVAJKSki5dukQKP3bsWHZ2Nknv2bNHIKC9WwuFQj8/P3IxJyfn6NGjJH3lypWEhASSPnHixOPHj0na39+/pjbKgVgs3r17N7n47Nmz4OBgkr527VpcXBxJh4aGPnz4kKT37t1bXV0NQDvoYATz8/MPHz5MMiQnJ0dHR1tbW2/YsOH06dMPHjwg1/ft21dZWQlAR2jetWsXuVhUVHTo0CGSTklJYQ4WhoWF3b9/n1w/cOBAee1GLkVRjGBJSUlgYCDJkJqaer7OMxM5202uHzx4kMvlkjQjWFZWdrDWeUe3bnTow9hY8j2cP3+eeVIPDAwsKSlhBIlFHo/HYx5M7927Fx4eTjJERkbeunWLpA8dOsQchdi1axcxp6+oqNi3bx/J8ODBg9O1N7TWN0t0cnIySR8+fLigoICkd+/eLa31t1lVVbV3715yMTMz8+TJkyQdGxt7/fp1kg4ODs7Ly2MEyRH2mpoaf39/cvHx48d///23jY2NkZFRQkLClStXyPWjR48yf8V+fn4ikQiAjhK9Z88ekuHJkyfMT0FSLeS6stPv0qWE7dvB01MF0y83N3fLli1CofCF0480tTXT715dKC6VTD93d3dHR8dVq1atXbs2ICBA68eu1GiipT5yc3Pv379PZi3zQ1YPop4Zhg8fvmfPnsLCwvr5FOPgwYPx8fHe3t4NDcrS0tKYv967d+8qVt5/iI+PZw50yTN+/PiGTxjDhw+Xz0O62dQgtBDq+VKBQvB49EdB7OwgNxc6d4YlS2DpUvrQaKtZtWrVK6+80upiGiCT0aFnalWjRCIZOWrUxM8/7/jwIZiYAID80eTBgwczin/UqFHEZb+RkdF7771HCrW0tBwyZAhJd+/enTlbNWjQIKblI0eOJL8FhoaGjGCHDh2YMyHdunWT1D3EDBw4kLFBYwQNDAwYwfbt27/99tukxq5duzLh5fv37y9fo0ltXzgczujRo0lmCwuLd955hxFkMvfr1495+hwxYoSpqSnJwwi2bduWmZmvvvoq8/z91ltvMTZ0I0aMMDMzqydobm4+YsQIAHpc33kHIiOfR/vp27cv43V5+PDhTHr06NHEdM7MzIwIAkCnTp2YJr355ptMLe+8846FhQVTIxE0NTUdOXIkuSgfYuH1118nAwJAH8VhPJO/99575JiviYkJI2hjYzNw4EBSSJ8+fZg4DUOHDmX6+9577xkaGgJAmzZtmOf1V155ZfDgwUVFRba2tr169WIOEA8ZMoQZYUbQyMiIEbS2th5c5828xdOvX7/uK1bIfvqJbnjrp9/48eNtbW1JF9g1/T766COBQMDhcExNTSmK3tsit1JrqGlBgDyoNrM3HBkZSXQP0wAyBPXaU29vmMvlMvvB8shXRETq2W01XG1utLqG2SiqkeVowuXLlxlLMXnkq1aklkYbTNal5Yeo0baRN4Zmxlm3GDmS8vGhVLRJGRsba2Njc+jQIVX1sZG9YTs76sQJZze3kBMnKA8PasECVdWlYaqqqsJbb5OjZlJTqdWrqdJSNVejA3h5eWlrb/i776jkZB0YAp1BFxal1fU2TJ6pY5k1pgaQV0Dm6VJBAgICPDw8Fi9e7OjoSF4E09LSmIdENdFwORqAfiOfOnUqAL0INnz4cPIka29vX28NWRGsra3JW2/DV219IzGRDjOrIkQikUQiWbx48enTp5lXTIlEsnfv3s6dO7egkhUrVnz33XccDsfAwGD16tV0CRs2QGoqvXhubQ2zZsHEiS0oVhfgcDjkzUyXGTQIAgPh6lWYPLnJZgqFQuadlb04OjpqsfHEQXrrCQ4O7tu3LzrxaD0q+02sx6BBg2xtbYuLi//++2/5LU9CZmamh4cHAHz11Vf1BHk8HrM4w+Px6i3zbtmyBYD+V357WK00tRx97dq14uJib2/vjz/+uJUN+Oijj/bs2XPr1q16AxUdTe+pKPukotOoTgeTJ6FOnTq1a9eO2bYke6tkX60FfPbZZ0OHDiXnhl977TW6hHHj6M/jx9C3L9QehGMp5ubmE1n7DCGPi4vLtm3b9MCRllb480/aibeqnF9NmjRJDx6JdAE1mmgRE5Uvv/yS+P5lSEtLI1tK3t7eXbt2Za6TUzoBAQHkSm5u7rRp0+qpYbLL9fTpU0aqBW+fBGKcnJub28xtSEtLc3Bw6N+//7x58+plIztAV69eZa5nZmY2fPtXpBZy/t3Dw0Pe1faVK1fII3PDJxWE8P3336enp9+4ceOuHBkZGd26dWvZEBkaGvaopVu3bv/5obe0xEg0muHTT+HSJdqxZVN4enrqgQ4ODAxkrNU0SU2NKp+Erays0BGYSlCjGp4+fbq3tzcArYk7duxoX8uAAQMGDx5MXDzWs6Mmb7qOjo5jx461t7d/7bXX7t27V2/zlWimjz76yMfH5+DBgwMGDGBsF5Vl4cKFxBbD3t6esWGpB2PsumjRItJ+e3t7Ytg5fPhwW1vbY8eOkSvOzs6NeqJWpJaujhowSgAAIABJREFUXbuSnfIJEyYMGDCAjBIxt4mMjJR/UkHkOXjwYN++fYcPH96/loEDB44cOXLw4MF9+vT5+eefcazkKSsrW79+ve6PybhxtK/jZp+N9YGhQ4cyNmUaIysLLl+G+fNVViGXyyXm/UhrUfdOeWpqqrzTq/79+zs5OUVGRpLXxP79+0dGRjLngBmjJ+Kgg8vlMi6xGA4ceO4ow9bWdvHixRkZGcSXBZOBiGRkZMh3jdg3MSeJKYq29iI5AehTQCRzPS9aTAZ5mMwZGRlMBuLEg3F0xVStSC2E1NRUpjTStXpWZvXaxkjJt/+l4sKFC5aWlubm5tOnT//iiy+IA/PRo0eTPfvZs2cLBAKVDIizs3NISIhKitIWMplMKBRqq3al4HKpceOalDhz5oweeG7SCgcPUjt2qLLmI0eO3Lx5U5UlagNdMNFSuxpuikb1E4IoTj1LaZFINGfOnBEjRpSWlpK34XrPMS1GD9Qwi2heDZ88eVIP1LBIJNJwL2Qy6v33WTQLNIcuqGE1Lko3j6WlpZ+fH3kFVNbfBYIA0G5PSkpKJteZ1RobG48bN+769etCoZB410IYRCLRnTt3WDEglpb0kXIXl8YbO23aND3YG96yZUu9EKvIy4zW1DBh0KBBfn5+Wgx3iLCdoKAg0oWamppTp06xvTtqQiAQXLt2TU2Fq5y2baGiQuWl6hCurq6dOnXSZINOnGjuGFjLOH/+fHp6estkEXm0rIYRpMU4ODh8+OGHK1euHFrL22+/ffLkSXd3dxMTk++//37ZsmX6fw5bYdq3bz9fhcY5aubDD8HcHOqcfv6HNWvWyIeXRhQkOBi++ELBvIrSs2dP4vMAaSXqOjeMIOrG2to6KirKwcGhuLjYwMBAKBT++OOPy5Yt43K5gwcPZharEdZhbEyfq2nU86ybm5seLEpfvHhx5MiRjKNNdePtTTueefNNFdfzpspLfFlBNYywGENDQyaiAIOVldXFixdZ3Cs1QAIhrFy5Ug1lq4Wvv4Zdu2jl0a7df8rX/DkfdSAQCBi/bxqAolTmOUsemUzGqUUDXdBvcFEaYTFZWVm3b99Oq+PRo0fTp09vWYAN/cbCwoIJAMoK+vcHPh8aWpWxxdCseT799FMmAoS6SUuD9HSo9ZKgYgICApjQUkhrwLdhhK3cvn37888/f/LkiXwHJkyY8NwPJSKHkZER64Zl9276bbg2/Ni/xMbGDhgwAN/AFEcobM4rWWtwcHBojTjCgG/DCFuJiop68uTJ77//DgDbt28nEWdnzJihsfcMFiGVSktLS1nU4KZYvny5Huhgd3f3FgddVRY+n7Z3Q3QZVMMIu/nwww979epVXFw8ZcqUgICA+fPnP3r0iN1dUgMVFRVM5Hm2YGwM/frBP/+wpb1K4OjoSNwIqhuxGJyc6HUFdZCSktK8T35EQVANI+zmjTfeWL16taenZ3l5eZs2bQBox3Ds7pIasLKyWrdunRoKViNGRnRsyZ07/1PF1q1b9eD+mpubGxho4rfXzw/Ut3JcXV3d4mhmiDyamAoIog5WrFgxatSocePGde7c2cDAoHv37vPnz7exsdEPY1oEACwsoE0bkEj+HQx7e3s9WJTOyMgQCoUauMVRUfQhbDVhZ2fXq1cvNRX+UoFqGGErRkZGs2fPnjBhwtSpUwMCAr755ps5c+ZERERgTKqGVFZWBgcHN7yu4wweDF27wuHD/zazZ8+eOt5mRYiLi6uqqlIkZ2u4eZM+K/zKK60pA9EEaCmNaJBly+g1siFDVFUlE5Nqdi0KFnv8+PH9+/dzOJxPPvlkxYoVjNSTJ09++uknADAzM9u/f7/GvCtoAGNjY5YqMAcHendz4kTo3BmgvJwOmWtuDh06aGDQ1AeJf6pu/v4bhg2jVxTURGBgYP/+/YcPH66m8l8eUA0jGiQ8HHx9Ydo0WL++xco4IyPj/v37RkaNT12ZTDZu3Li2bds21aukpKSoqKizZ8/KZDJvb+/9+/czXh737du3f//+Nm3aFBYWfvPNN2FhYU0VwjpMTU1HjRrFumYDQMeOUFIKVcU1kBINUTGQkQF9+sD48XRoYvVpGPaTkEA/tMycqcae2NvbN/VniChF479lyEuNUm5xLCzAxkbR4SLx3E+doj9z59KvOX36KCpbR3BwsJubWzNSmZmZfZouViaTGRgYkJ+PNm3aSOQ2Hj08PEixAoFA/2xPKIpi666qEUDWE1i3Gk6HQ+/ekJ0NU6bAoUP0ux472bVrl729vY3ifzjKI5PRzrPUipmZmVrLf3nAvWGkdVRVwZMnin7kjW1OnYKjR/9zRTGYH6/p06fHxcWFhYWRiIf5+fmPHj16+PBh9+7dFSupSR49evTqq68yXxsaGmZmZt69e/f69es8Hk8oFGZlZZFvS0pKCgoKSDonJ6eiLjBQZmYmUfAURT148IBk4PP5jx8/JunS0tL8/HxGsLy8nKQzMzPFYjGx92YEBQIBcwqrrKwsLy+PZM7NzeXxeCT98OFD5tGBERQKhUSQx+MtW7aMOTr87NkzRvDRo0eMuRAjKBKJHj58SErm8XjPnj0j6by8PC6XS9KNCorFYkawvLycOdCSn5/PxDN9/PixQCAghTx48IBYPovF4szMTHKxoqIiJyeHpAuLCtxdinsGuMCNy1mGhnw+H7p3h8RE2LSJuKWQSCSMYGVl5dOnT58LFhaWlJSQdFZWVk1NDUlnZGQQR5JSqTQjI4NcrKqqys7OJumioqLi4mKSfvLkSXV1NSMolUoB/iNYXV3NOJApLi5mwhdmZ2czu78ZGc8FZTIZqXHKlClGRkbygswx4qdPn1ZWVjI1klkkk8nkZ9ELp19WVmZBgYRexgedmH4AwOVymXmr3emXlZVVUVFxs5a7d+8+evRIM1brzYBqGGkARSnx4XIhK0vRT9eudGWdO9O/oVlZ4OxMn0pRkqVLl+7cufOnn34qLCwcO3bs//73P0dHx9DQ0KioqF69evXu3dvY2Lhhkbm5uRs3bvztt9+EQmHzL4XR0dFk85gpxMjI6Pz583v27PHz83v69GlFRUVsbCz5NiMjIzU1laQvX77M/NCcO3eOVhhA/4ASvyIAtD6LiYkhmR8+fHj79m2SvnbtGqOuLly4QBQGRVGMYHl5eXR0NMn86NGjlJQUkr5+/TqjdS5cuEAUhrxgRUVFVFQUAB3e+/vvv7906RIRTE5OZn7KIyMjmd99psaqqqrIyEiSOTs7m/FZePPmTeZJ4uLFi8zTQ3h4ONGm1dXV58+fJ4I5OTlMdMVbt24x6jk6Opp5CAgPDydKkc/nM4LPnj27cuUKKeRWyu2qygeVWeWRt60uJ8UQby1gZQVlZfQbH9DPKBERESRzXl7e5cuXSTotLY0JwxcfH8+o5PDwcKLbhEIhI1hQUJCUlEQE//nnn3v37pF0QkICo5LPnj1LBMVi8dmzZ0mGoqKixMREkr5bC0knJiYymjUiIoI8IUkkEjLCPXr0KC8vj4uLI5nT09MZJ52XLl1ins/OnTtHnpCkUilTY2lp6Qun38mT57y8+K6uIJXqxPQDoJVfcnIy6a92p19sbGxubu7+Wvbs2RMVFdXoL4Ym4ejBITyENYwaBfb2sHgxmJq2vs1ZWVn37t1r165daGjozp07ra2tx40bV1paevjwYfl3WUJJScnFixctLCzMzMxOnDjh5+cHAN7e3ubm5oydFwD9s5uQkODo6Ggu53nIxcVl4MCB7PLJrGfw9gZnxNwdcdQj7tq1Me++y9mwAXr0oPc12ElFRUXbtm0NDQ3V1PwNG+D99+Gjj9RUvF4RFBSUnZ3t7OysxV7h2zCiQRIT4eefVaKDAeizK1OmTPnggw9++umnY8eOBQYGWlhYxMbGMsuP8tjY2Hz99deffvrpq6++amRkdObMmdOnT5eWlvbu3VssFl+9ehUAjhw58sMPPwwcODAiIiK+ni9jliMQCJi3PTZiOfWDTjfiny7fMbamkuPjQ5+H/eADNnaE4Ovrq1bfoleuwKBB7B2elw6llwQRpOUovwTdDFFRUcHBwe3bt799+3ZCQoKVlZWzs7OPj0/zbgLfeuut2bNnnz17lsPhvP/++x9//HFJCb2vDAA1NTVz5869d++eRCLRMxMtiUTC7O+ykk5dT/+SZBgetuR6HLzxNtStrrMUtXo0O3eOfhW2tlb72ISGhvbp02cQKvxWg2oYYRl8Pv/bb7+9deuWkZGRTCarqamZOXPm6dOnhUJhp06dFOnM8FqYnDY2Np9//jkALFiwQBFxNmJhYWFvb8/GljP84ACL//nf1LQbp9dMY3VH1E1cHLz3nmqfeBtnxIgR+nS2XougGkZYxrZt206ePAlAxzScNWsWsYQ6duwYRVESiUQqlc6ZM6cDy907IA0xNoaaUti01g2A9XHmQ0NDx48fr45ZWlhIm1e++WbD8VM96K5OVaAaRlgGOfJramoaExPDWPPKM3nyZHX8wLEaLpe7a9cu7dqhtJ5a/9Ks18EAYGtrqybHFzdu0Pbjffu2frBfDJ/PNzIy0rqZsR6AahhhGb/88kvzQWebcaH10tKhQ4elS5eyvft799K+s5KSlHMwo4PY2dmpqVW5uRp6FQaAkJAQdGapElANIyzDpBaWNVrbGBgYWFpaarsVrcXEhD7vdvCgGoP3sZrSUtqPdO1BcU0wl7UHxnQNPLCEIPqPRCJhvESxmk8/hYgI4reDxbi5uTHOPVTIihXw228qLA/REKiGEUT/qaqqCg0N1YN+9uoFkyfDjh3s7oqLi4uCVv1KkZsLr72mlESrSExMZFyqIa0B1TCC6D+WlpbyIR3Zy7Ztrnrg+E9NTowNNPtz3rZt2zZt2rB3LukOmr1vCIIgrWDp0uVdu3JqaloQE0SHSE5ObtTXW2v46Sc6nHf79q0pQzmGDRuGZ5ZUAqphBNF/ysvL/f399aCfbdvaTJwIOTlQFyaAlWRkZKjWTdv9+7S/jhEjWDkaCKphBNF/zMzM1HdIRpMQQzMPD/DxIXEOWcnMmTNVa7iemEhH/f6//9PoaBw4cICJoIW0BlTDCKL/tGnTpl+/fnrQzyNHjlAU1bkzFBSw3l5aVeTmwunTsHatqspTlHnz5o3AF3BVgGoYQfQfiqIEAoEe9HPdunUkXPTy5Sy2l96+fTsTxrj1yGSaNs4iGBgYNB+6G1EQVMMIov9wudytW7fqUz9HjIDLl9naoXnz5llZWamq9YsXQ0CAqgpTggcPHhQVFSkhgDQBqmEE0X+sra03bNigB/3ctWsXObBkYwODBwNLo0Lb2Nio0Kd0dTVYWGjh3mZlZZWVlWmhYr0D1TCCIKxh9OjRZCHUzAzefpv2qMVG8vPzxWKxSlru7AxLloCpqUoKU46JEyf21UwQCX0H1TCiQZYtg9u3NVhf46Slpe3cufP333+Pi4trNEdkZKREImn0K5ZSXV199uxZljZeniFDhjD/nT6dfhGMjmZft/766y8ej9f6duflQXk5yMXORlgJqmFEg4SHw9Ch8PnnWlTGDx8+PHjwYPv27S0sLM6fP5+QkFCv/4GBgd9++61UKtXguKgdDodjaGio9mrUj1AolK+Ew6HD67IOR0dHW1vb1jf7/Hno2hV69mx9SS0hODg4JSWlJZLIf8EIS0gDOMqEdLWwoLfpFCQ3l8546hT9mTsXnJygTx8FRVVFXl6eQCCYN28eAHh7e9+7d++DDz5gChcKhSkpKUKhUE3uBrWFubn5xIkTtVW7CnFxcdm2bRtjoOvtDZ98Au++C+3aqbAS1sDj0WpYW0yaNAljnakEVMNI66iqoj8t4NQp6N0bfv2Vdv+jMxw/frxr165jx44ViUQYz1wH8fT0lG+VsTEd+jAkBObP18HGNklgYODUqVNbaSydmUmHXtZiwI5Wth9hwEVppAEUpcSHy4WsLEU/5NG9c2fYtIkWcXbWmA4WCoVZWVn5+fkymaxBh59TWFgYFxfn6OhYXV0tn8fMzGz9+vVTp04dP358UlKSq6sr+TYvL8/Dw4OkExMTDx8+TNKBgYFXr14l6Y0bNzKHOlavXk0uFhYWbtq0iaQvX778559/knRQUNClS5dI2t3dPT8/n6RXr15NzIOLi4vd3NzIxWvXrh08eJCkg4OD4+uMhjdv3vzs2TNyfc2aNaS/ZWVl69evJxdv3ry5b98+kg4JCYmJiSHpbdu2PX36lBEku+M8Hs/FxYVcvH379p49e0j6xIkTUXWBbbdv356VlUWu//rrr8RNY2VlpbOzM7l4586dXbt2kfTJkyfPnTtH0t7e3g8fPiTptWvXkpPN1dXV69atIxfv37//xx9/kPSZM2fCw8NJeufOnenp6SR97966wMAaAODz+WvrfFhkZGT8Vhfz7+zZs6dPnyaZfX197969S9JOTk5VtU+QQqHw119/JRcfPXrk5eVF0hcuXGDCUvn5+aWlpZHrzs7OFRUVACAWi9esWUMuPnnyhHlEuHjx4vHjx8n1vXv33rp1i6RdXV25XC4ADBo0iLkdOTk5zFmy2NjYo0ePkswHDhy4ceMGSW/YsKG0tBQAZDIZM4sqK//1IK356Xfjxg1moNg1/SIjIysrKydNmvTpp59OnTrV3d3dVCsWbvJQCKIxRo6kfHwoPl9jFTKkp6d/8cX/t3cnYFGV+x/Af8O+qcOqFqiYSyku2T/TSvF6/7b4t7T0QrfFRAyp1Aq1awp5SewWFN4yNwzkuuEChFsumaBxQUy9pJKJ1ysCaigwMCwzzPp/Dm+cO6GMLMPMmcP388zjc57Dec953zOv5zfnvO953xdnz5598ODB8PBwtv7zzz9ft24dv83atWtHjBixc+fO/v37p6Wl8eujoqK2bNmi1+vr6+s1Go1SqWR/0ul0DQ0NbFmj0ahUKrasUqk0Gg1bbmho0Ol0bFmACdVqtWFWtVrtnVnls63VavkydiShWq3mT05bj7h37169njurfMLKSuVbb+kLCrhdGmaV/2q44zUdUaVSGR7xzq9GqzVBQo1G0/ojNqtFhgmN16Inn9Q31TILVD+9Xp+cnHzmzBm9vv0VviO1qCP1VqfT1TfS6/Vff/31ihUrWIW0FAE9DwTx++EHs93+NjN48OC0tDQiOnHiBN8LWqPRsFZGtVptb2/v4eExf/786upqIjLsoqXX69mEbs7OzkTE93WSSCT8RG+2jdhBDZ9mG84ExzekCSeh4durLWWVz7ZNI1ZGSyVkQdQwq+7ujs88w41fERf33zNsY2PDb2OYVcOvxrBd07CMHU9o2BvurkdUq9X8UZpVBr7eGq9Fq1fTa68R3+vO/NWPiF5//fUOVnhL1SKi3/4vE/2u2lsKHkqDGQmgGXj8+PHjxo2bOHHiH//4R61WO3fu3NLS0s8a55EPDg4ODQ194403Jk6cOGXKFDOel06nUqnOnz/f6YfpfNOmTbtzAMXnnuO6FR450vmHN5G//e1vHRl/qr6efvyR/vAHE+UGLA13w9DlzGzEF9vX15dvU2T4plPRUCqVeXl5w4YNE02JmpFIyIrGzOa7F7RPYiI3lufAge1LbTKHDh3q168fRvDoONwNA4hf9+7d51hXZ+IW/OUvf2G91ZqJiKC0NG4si65Ao7HMsFnN+Pv7e3h4NF8LbYcwDABWIzo6+s6H0kTUsyfdvEkqlXUU5OjRo6yTdjv89BOdPi2IF7QGDx7s4+PTjiJAMwjDAOJXVVXFv15i1Yy8W/L22/TFF9ZROKWS66RtHXltGetn3vLfobUQhgHEz83NLSgoSATlNNLRbNIkOn+eysutoJRTpkzp3r17OzKq03GP35vewbawTZs2nTp1ysKZEAWEYQDxs7Oz8/PzE0E5MzMz79o2TEQuLvTuu9Q0SIk4padzHaSlUkGULjQ09LHHHhNEVqwcwjCA+Gm1WjYMk7VbsGDBXduGmSeeIHd3amHeLAGJiYkpKytrR4b+8Q/685/bkQ4EDWEYQPzkcvmGDRtEX04HB26U6Rs3hF7Q9s2wFBdH06ZxA7ELxNmzZ0vZZC3QMQjDAOLn7u7OD9Rs1T755JOWHkozM2ZQTo7Q31xycXFpxxReWi01DWImCHV1dWz8cOgghGEAsBrBwcFGHkoT0dCh3IxfFy4IukSFhYXNJk6+p9On6dIlapyfUyjGjRvXv39/oeTGmiEMA4hfTU3N9u3bRVBO/1bMcZ+QQE0zLQlUVlZWW98b/u47evZZgRYHOghhGED87O3tWxPAhK+ysvKemXRwoDfeoKYpKIUoLCzM09Oz9TmTyejgQRLaG2fJycn8VIzQEQjDAOLn5OQ0duxYEZQzPj7eeNswM3YslZRQ4xS9YhASQps3C64gwcHBI0eOFFy2rBDCMECX0JroJXwxMTHG24aZAQO4T3q6QAu0Zs2a8raMM6JScT3AhcbZ2dlwNkZoN4RhAPGrrKzs4Kw+VsfTk+rqBJrryZMnt34UrdhYmjqV7r9fcGUpLS2tqqoSXLasEMIwgPh5eHisWLFCBOXcsmVLK2/rQ0IoO5t++UWIhfb393dwcGhNzm7dorIyblgSATp16lRxcbEAM2Z1EIbBjObPp/x8Mx7v7hQKxe1GzXqr6nS68kbiGHBKlNo0JOeyZfTpp0I8DXK5XKvVtiZnp06RWk0BAa3Z1txefPHF4cOHm/uoYoQwDGa0fz89/DC98IIFg7FSqfzyyy9nzZoVEhLy0UcfGUbc77//PjQ0dM6cOWFhYVnCHxGxLZRKZXZ2dltSCNSECRNa0zbMPPwwNxfCuXOCK8tXX33Vmp961dX02Wf05ZeCyz+Ylp1pdwdiIJG0oRRubuTl1drt2dB3GRncZ9Ys7m5lwIDWpjWRU6dOXb169cCBA0Rct9vdu3eHh4ezfa9YseL777+3t7evq6vbt2+fiQ4oCBqN5vr164LIinktXkwxMbRjh3mPei+tHNEsIYFmz77XviwnPT19wIABuCHuOIRh6JjaWu7TDhkZ3PC4S5aQnVAqoY2NjVwuLy4utrOzCw4ObkeZBMvNzU0cJVq0aFFcXFzrb4gDAmjMGPr6a5ozR7Bfzt3V13NzVGzbdve/CsHo0aPd3NyEkBNrh4fScAe9vg0fmYyuXm3tx9eXO1ivXrRiBZckMlI4MZiI6uvrP//88zVr1nz55Zd79+7lz4uDg0Nqaurf//73uLi42NhYvkU5JSWFdReqqalJS0tj21+5coV/oJ2Tk/Pzzz+z9Xv27OGfQ6akpLBZ3+vq6lJTU9kGRUVFx44dY8snT5680DQe4759+/iXW1JSUlibYn19/e7du9nGxcXFR48eZcunTp061/QQ9sCBA7du3WLrd+zYodFoiLin07t27WIrS0tLjxw5wpZPnz6d39Rsf/DgwZs3b/IJ1Wo1ETU0NOzcuZOtvHHjxqFDh9jy2UZs+dChQ/w9986dO9l4jWq1ekfT3eivv/767bffso3z8/NPnz7Nlo8cOVJSUsKWd+3apVQqibg7eD7hrVu39u/fT0SfffbZ+fPn+Wlujx49eu3aNZZw9+7d9fX1RNx0UikpKWxlbW15efm+4mJSKunixYKTJ0+y9ceOHbt69SpbTk1NrWvsVK3T6fiElZWVe/bsYRtcvHgxJyeHLWdlZV25coUtp6Wl1dTUEHEvg/EJq6qqMjIy2AaXLl3i2wJOnDhx+fJltj49Pb26upot86ObVVdXpze9YlVRcXnSpBPvvsvNaZidnX3p0iW2cUZGhkwmY8sWr36+vr5SqdQaq59cLv/000/j4uK++OKLb775xuKvXQnlRgSslVTahulPfX1p4UIKDycnJzOX95dfflm0aJFUKn311VdbGlVfq9X+sVFZWdnMmTOnTp3KMqnT6by9vfv06aNSqfR6va2tLVvv4+PDFmxtbb2answ7OztLm+aD7d69u6urK9vGy8uL/9/u4+PD7udsbW29vb3ZBk5OToYJnZ2d2XpPT0/jCR0dHd3d3dnG3bp147vgenh48Ant7OxWrly5fPlyGxsb/ojNEvLl8vDwcHR05MvIsmqY0MHBwcPDgz8i33W5WUJ2niUSCX+iHBwc+NGj3Nzc+G5Khgm9vb35hHxW7e3tDRPy5XJ3d3dqqkve3t6sCIZH1GrtX3rJMz6eG2W6d28Xvf63BhepVGqY8M6s2tnZ8d+pi4sLn1WpVMp/NfwRif5bGezs7Pisuri49OjRg52oHj16GCa0a3oI1LNnT7aB4RFzc529vHqMG8f9xTChl5cXn9Cy1c/Hx0elUtna2jo5Od2z+vEVXiDVz9bW1s/Pz8bGxtHR0cvLq5V97zuPxOI5gC5Eo7HU7a9ara6oqHBycsrPz9+xY8f69etZ27CLiwvfNjx+/HjWNszC8OHDh9lXExUVNWzYsCChjSXYFjqdTi6X82Heev3www9PPvlk6x9KM2o1TZ5Mhw5R0y8ooVuzhpydBd0wTMQNZjl06NBHH31U6GfTqC1btly7di0yMtLoVp0Ld8NgRpZrBra3t+/VqxcRBQQEeHl5vf3220TcnWt4eHhFRcWePXtmz579+uuvv/POO7a2tjqdbo7VtSUaZWNjI4IYTMQ983/yySeNlvUu7O2poYFrabEKZWW0dy81/QgUrlmzZgk3c1YFYRi6Fi8vr3nz5v3nP/8hot69e/v7+ysUinGNj/9mzpwZ0PiGpq2t7SOPPCKm88J6Svft29faC9XuS39cHC1dyvWabt2wGZ0rOjo6PDycfxzdzFtv0RdfNF8JIoYwDF1Or0Z8sZ2dnQcOHEjE3TE/9thjojwdtbW16enp7733nihL1xqPPUY//8wF42XLWrN554qKimqpg8LJk9y4lWZ/j689fvjhh/vvvx9TDnccekoDiJ9UKhVHDP7www/b3Z3l+efpxg1BDG/ZUgwmok2baPp0C7betIGrq2srh+QE4xCGAcAX2tvoAAAfZ0lEQVRqLFiwoK39s3ienlxX/bw8yxf29OnT7N2qZrZv58bCCQxsvl6YRo0a5cteQYSOQRgGEL/q6uoNGzaIoJz8S0Tt88EH3O1m49vFllRYWKhSqZrloLaWzpyhadMsmTGwCIRhAPFzdnZm3dCsHT9YR7t9/jk3bExDQ7t3YAIvv/zynR3X8/O5wV6t6PWfxMTEPCE8W7B+CMMA4ufg4DBkyBARlHPbtm3tbhtmHnmEG97yo4+EdTL++U9KTxfc2NfGhYSEjB492vg20BoIwwDip9fr2QiR1m7p0qXtbhvmTZrEPQG24MxLcXFxt2/fNvwuEhLo5ZfbNqmKxdnY2HT8uwAihGGALkAmk33yySddoKCt4u5OffpQZmarNu4MISEh/ACQRFRZyQ0w0jTqpdW4dOkSP2g5dATuhgHEz8PD469//asIyrlmzZoOPpRmFi7kXgpavdoyp8RwaGiZjJYv58ZZb3x33ZpcvXq1srLSmnIsVAjDAGA1nnjiCVM9CH31VW7MyMbpo8zt5s2bbN4qIgoJoTffpP/5H3PnoeOeeeaZBx98sOP7AYRhAPGrq6s7cOCACMo5cuRIU5WiRw/unvj99021vzZISUmpqqoiohMnqG9fEkXnOWg/hGEA8ZNIJPw8hlaNzWFsKmPGkKMjNU2XbD4RERFsDscvvqC5c813XNPavn07P9U0dATCMID4ubi4PPPMMyIoZ1RUlEnahhmplHtz6f33uUmNzEytpo8/pj//2YpvhZ999lk8lDYJhGEAsBqxsbGmahtmHBy4WLhli1nPwNatyYsXywYPphkzzHpc03J3d3dxcTHtPrsmhGEA8ausrFy+fLn4y9kuoaHUqxc3+ZLZeHg8nJvrNH262Q7YKWQy2V1Hxoa2QhgGM5o/nxuyD8zO3d19mRBm+Ouwffv2mfChNO/VV6mujjZv7nD+WuHnn+ngwRGHDjm3YltBO3jw4C+//CLoLFoJhGEwo/376eGH6YUXLBuMDx06NGPGjD/96U+JiYmGhZfL5a+99tqrr74aFham1WrNeF46nUQiEcecdJ33vbzyCv34Y6c3Ev9SRGvXad9fqHR3bz61g9V5+eWXR40aZXXZFiA7AeYJLEwiaUMG3Ny4udlaqbSU2zAjg/vMmsXNwG72+c3z8vK++eab1atX6/X6xMTErVu3vvrqqyz7r7zySmxsrKOj4+3bt1955ZUdO3a0sljCp1KpLl26NGzYMOFn1bhpnTYD0cCBtGQJffghN/GDn5/xXLRTQQGtebPg4z8elIZ/S1730dtv04MPcmN6QdeGMAwdU1vLfdohI4MeeIC78tmZtRI2NDRIJJLevXsTcfOW1xpkvrq6esCAAfb29q6urjKZrB1lEiylUpmXlyeCMNyp7r+fFiygCRO4pzYPPWT6Qy2c15Cc96z0gzW0fBFVVdFTT9Fbb3G/R63ToUOH+vXrh87SHYeH0nAHvb4NH5mMrl5t7YdNEt6rF61YwSWJjDRzDDbugw8+mDZt2pQpU+bOnWvYocnGxub27dvl5eXXrl1TKBRsJxUVFfxASLdu3WINljqdjh+yv6GhgY/lNTU1fLyvrKzk55o1TMgPz9vQ0MCPEXjPhHq9nk+oUqn4hLW1tTU1NSyrlZWVjo6Oc+bMIeKOqNPpiFqVUCaT8e/p3r59+86EarW6oqKCHaWurk4ul7NlmUzGzyRx+/Zt9iTZMKstJayqqrozIcs22/PChQv5M1xfX19dXc3WV1VV8V9NeXk5/+yaPzkajaa8vJxtrFAo+ITV1dUG32l5376aLVtowwa6eJFtyz0GN0zIht0g4hLyHZTKy8s1Gg1LwB9Rq9Uazt/w1dcUfOb9Xse2y8dPrKur416WOnKEm1mpuJhPyGqRYUKlUsnXIrlcziVsZPHqR0T9+/d3d3fnK4CR6sfXIoFUP61WW1xcXFJSUt7ItH3v2wFhGDpGKqV+/Vr78fWlVat+C8BSaccO3DZlZWUbN25MSUlRqVQt/a+Lj4/ftm3b7t27//73v3/66af8ARwcHL7++ut3Gp1rmpdn+/btN27cYNusW7eOXYXr6uoSEhLYyitXrqSnp7Pl48eP8zOzpqSkXL9+nU/IQrJCodiwYQNbWVRUlJqaypazs7NzcnLY8q5du4qbLtnr169n4UqpVK5fv55tUFxcvGvXLrack5OTnZ3NllNTU4uKitjyhg0bWNRRqVTr1q1jK69fv56SksKW8/Lyjh8/zpbT09OvXLnClhMSElgM0Gg0fMIbN25s376dbfDjjz9mNs2WsGfPnsuXL7P1GzduZD9BdDrd2rVr2cqysrItTS8JnT179ujRo2z9vn37LjYFwMTERBbXDRPOmzePT5ifn3/kyBGW8MCBAwUFBWw5KSmJhS69Xs8fsbKyMjk5mW1w7ty5gwcPsuWDBw/y3+mmTcn19ZWPP06xsTRnDvdblIj7SZGUlMQ2Ligo4AcjO3LkSH5Tf8PNmzfzEXft2rXs94pcLmedDw4e5H52dutBIRMu0bBhx7OyYmNjud9wUilVV/MPk/iEtbW1GzduZEe8fPnynj172HJmZuaPP/7Ili1e/RQKxaBBg7p3775mzRqWJSuqfjKZbOHChYsXL3733XeTk5MdHR1ZESxF0hndDgHuTqOx1O3vzZs3U1JSunfv3rdv3/T0dBZI4uPjXVxcwsPDWW7Hjx///fff29vbl5WVzZw58/Dhw2x9VFTUsGHDgoKC7l4oa1BVVZWYmLhw4UJryKwgfP011ddzz6j1+rZ1lmgmJYVrEh41il58kWjfPsrNpY8/3n/48Pg//KF7Vhb98APXQ8LJqXkya6DT6SSNrCGzLdqyZcu1a9ciIyNb3KLz4W4YzMi8zcCGevfuHRERMWfOHG9vb4lEcubMmdOnT1dXV/fs2ZOIm7KNiPr06ZPT6PTp0/7+/mY8L53Ozc3Nqn9G8M6fP9/pJ6vRnDnk7U2Bgdy9bLtt3Eg3b3K3wlwMJqJnn6Vvv6Xly6f06dP96FGKiKBHHrHSGExEmzZtOnXqVLtPDvDM2jsGwOJGjhwZHBy8ceNGiUQyYcKEF154oaysLDc3d/DgwevXr4+MjNTr9c7OzvzDTHGws7Pz66Tuv+aVmZkZEBBgnjuwP/+Z+3zyCR07xsXRxx9vQ1G//ZaOHqVBg7hQ+192dtyrellZ3AyLfn504UIb9ig8oaGhwsuUVcJDaYB7EMFDaa1WW1VV5enpeY+iwh1UKjp+nAudBQXcTAyentw7ei2Ry7mX8t57jyZOpNGjuU7Xd31kGxMf/8Zrr/X09m5pP2A2QngojbthAPGTy+UbNmxYunSp+Itqag4ONGkSjR/P9aZiL/o+9BD3ru+zz/7uSOnp1NBAp05xLyLt3s09aXZwaDErEeHhTtbZHmzo7NmzPj4+vuz1B+gAhGEA8XN3dxdHDP7kk0/+8pe/mOehtCFHR/Lx4eJrbi7XraqoiHbtIpumrjV6PTcOh17PtSgPHXrv6iSOGRHq6ur4V++gIxCGAcBqBAcHmz8GGxo7lvsoFPTvf/8uDA8eTPb2rT2NhYWFffv2tfh7Mh00bty4Du4BGPSUBhC/mpoa/gVfqyaQHuzOzjRsGHfjyz4BAW2IwUSUlZVlOHwbdHEIwwDiZ29vL5AA1kH8MGFWLSwsTATd5ZKTk/nhRKAjEIYBxM/JyWns2LEiKGd8fDxGHBKI4ODgkSNHCiQzVg1hGKBLEEf0iomJsWzbsEmsWbOGH6faejk7O9u3vj0cWoYwDCB+lZWVH374ofjLaSUmT57cvXt3K8lsi0pLS/mJLqAjEIYBxM/Dw2PFihUiKOeWLVtEcFvv7+/vYOS1Yitx6tQpfq4R6Ai8sAQAVkMcQ3LK5XJXV1dbW1urOe938+JvI2VDR+FuGED8lEolP++hVZswYYII2oa/+uorfppeAIRhAPHTaDT8JMdgcUuXLvXx8bF4NjooPT2dn6oZOgJhGED83NzcgoODRVDORYsWiaBtWBxGjx7dp08fcZTFshCGAcBqxMXFieChdHp6enV1tdWc9Bb4+vpKpdIW/ghtgDAMZjR/PjffKpidTCaLiYkx+2FNTwQxmIi8vb3t7Ky+e6xCoVCr1ab/jrsehGEwo/376eGH6YUXEIzNTCqVvv/++2Y+aGc4e/ZsZ+zWzMaNG+fq6mrmg5rcnj17Lly4YPLddkEIw3AHiaQNn27dyN+/tZ/SUu5gGRlcMA4J4SapEZ60tLQrV64IL18dUlNTs3nz5g7tQhjeeecdnU4njLy0X1JSkggGx5ZKpc7Ozu0/C9AEYRg6praWm3y1lR+N5r8Hy8igHTt+t0YAvvnmmzfeeEN8L5PU1tampaUJ4AQDJyMjQy6XW/u5OHbs2OXLl629FEJg9e0TYHp6fRv2WVXFfVpp3DjuhrhXL3r7bZo3jwTWv6OioqK6uvq1115TKBStLBAAQAchDEPHSKVtiKa+vrRwIYWHk5NTx47aKTw9PWfNmpWXl9ds7xKJpL6+Xq1WW2l4trGxqa2t1TSqr6/vlHNnFhKJRKvVyuVyGxsrfozn5uam0Whqamrq6uq0Wq1ZzpzpdevWraGhob6+XqVSKZVK0x/ALFxcXITwn1qCl/DAfDQaEl4H0WPHjsnl8lGjRrGXIN98882XXnopMDCQPy3btm1LSEiQSqXW+59Fp9MpFAo3NzfrLQJTW1vr5uZmvhrbCSQSSW1trbOzs1X/mJBIJAqFwtbW1sHBwXorlUQikclk8+bNCwoK6oSvurVwNwxmJLwYTET5+fm//vqrn59fS2MRvNLIjKcJALoQhGHo6iIiIrr6KQAAy7HiJhaAzjB27NhevXp1xp4BAO6EtmGAFjU0NISFhSmVShsbmw0bNgh/qvbDhw+vXbtWIpH87//+77x58/iC1dTUzJ07V6vVOjo6JiQkODk5ffTRR/n5+axhLyEhoUePHi2eBQvRaDRz586tqakhonXr1nl6ehpmpLS0dMuWLR988IGFcndvNTU1YWFhOp3O0dFx48aNjo6OhmkKCgoyMzPZd5SdnR0bG+vi4lJfXx8eHj558uR7793sNm7ceODAAb1eHxoa+vzzz/PHLygoiIqKsrGx6du37+eff272fLVWbGxsbm6uTqdbtGjRuHHj+GT//Oc/4+LibGxsHn744aioKLVaHRISolartVpt//79Y2NjW3uAjtADQAumTZt27ty5kpKSy5cvT548uYWthOLMmTOzZs2qrKwsLy+PjY3dsGEDn7PJkycXFhaWlJScP39+6tSper3+6aef/vHHH0tLS4uLizUajVDKYOBPf/oTy+HVq1effvppwz9dunTp//7v/5qtFBr+nJ87d27atGmG2cvPz3/88cdDQkLYyoSEhGXLllVUVBQVFcnlcqEVRK/Xb926NTo6uqKiorKyMjw8/IcffmCZVCgUCxcuvHHjxs2bN/fv3z9//nwBZl6v13/22Wdr1669detWRUVFcHBwYWEhy2dZWdkHH3xQ1igpKSkmJkan0z3xxBNlZWXXrl27efOmeYqDtmGAFtXW1t53332enp5KpbK2trbF7YRBrVZLJBJ3d3ei5m9i1NbW+vr6Ojs7u7q6qtXqvLy8MWPGDB8+3MHBQRh5vwt28u+77z6tVltXV2e4xc8//7x06dJPP/30LskEgz/nLi4u7J6e98svv0RHR2/dupWIqqqqrly58vLLL3s0Ekz2f0ehUDg7O7Ps2draqlQq9mcnJ6fPPvuMLXt5eQn2/0h9fX3Pnj29vb2JuLcGNE3jCPn4+Hz88ccs/1Kp9OrVqykpKaGhoWaehhJhGKBrcXR0PHHixN69e//1r3/V1tYuWrTo2Wefta5TMG3atJKSEv5ianWCg4NPnz7N3vOprKzcunXrlStXZDLZo48+GhMTY2tra3UlIqJbt24JsGmj9SoqKjw9Pbdv367T6VJTUyUSydq1a1t6e8K0EIYBuha1Wv3QQw+tWbNmzJgxEonkueeee/DBB/39/bvWWRAMJyenxYsXv/POO0S0adOmjz/+OCoqSjC5a629e/fm5OSsWrWqtQkEZvPmzbdu3Vq6dKlCoQgLC3Nzc6uvr586derx48fNkFOEYYCuRaFQTJkyhS+zVQ8iIQL33Xcfi8FEZG9vb40l2r9/f0FBgfXOpLl169bq6uqlS5cS0ZIlS9hXYM4BzhCGAVo0cODA7OxsNm7fgAEDWtxOGHr06OHg4JCdna3X68vLywMCAojo3Llzw4cPHzhwYGZmppOTU21t7YgRI1JTU8vKygICAmxsbNzd3V1cXIRRgt8ZNGhQbm6uu7u7RqN54IEHiOjChQv9+vWzllG0Bg4cmJWV5ejoWFNTM2jQIDZQzJAhQ5q1x9+4cSM2Nnb69Ol6vf769et+fn4C/C569+5dVFSUnZ0taeTl5VVdXX379u0BAwasXr06IyMjOjo6KyvL19f3wQcfFGD+/fz8rl+/fuLECRsbGzc3tx49evz6669qtdrPzy8qKqqgoGDx4sXffffd0KFD161bN3r0aFdX14aGhoEDB5qnLHhhCaBFGo0mOjq6oaHBxsZm+fLlwp/W7eTJkykpKTY2NmPGjAkODq6oqNi/f//rr7+uUCiio6N1Op2Dg8Nf//pXOzu7jRs3Xrx4UafTvfHGG0OHDm3xFFiOXq+Pjo5mg2BHRUV169Zt+/btEydOZG91y+Xyffv2CXl0szvPeWJiYlBQULdu3Yi46JuXl/fCCy+w8JycnCyRSEaMGDFr1izLnXJjvvnmm+PHj+v1+unTp48fP/7nn38uKiqaPHny8uXLtVqtRqNRKpWBgYGsRAKUnJz8008/6fX6WbNmjRw58uTJkxqN5rHHHouKirKzs9NoNAqFYurUqRMnToyMjFSpVOb8L48wDAAAYDEYRQsAAMBiEIYBAAAsBmEYAADAYhCGAQAALAYvLAGAaN24ceOpp56ys7OTSCTsLRSVSlVXV7d06dLZs2cHBASEhYUtWLBAtOUHa4AwDACiZWdn16dPHzs7O6VSyV4MHThwoFwuZ28N+fn5SaVS0RYerAReWAIA8SsrK+vVq9cXX3yBe18QGrQNA0BXpFQqe/XqxaZp8vf3X7hwYVBQkIODg5OT0759+86cOePq6tqtW7fBgwcXFRWxE7R9+/bujZycnBYsWGDO8Q5BxBCGAaAr0uu56Warq6uJSCaTxcfHq1SqJUuWjBkzJjk5+aWXXgoPD3/rrbeKi4vfeustIkpISHjllVeGDx8eERERFBS0evXqI0eOdMUTB6aGtmEA6Orq6+uff/75lJQUZ2fnpKSk0NDQjIyMqVOnEtHOnTvZjIpfffWVv7//1q1b+/Xrp1QqdTrd/Pnz8/PzrWWMaxAshGEA6Oq0Wm2fPn0MxwwfMWJEs5Pi4OBw9epVwxkhJRJJQ0MDwjB0EMIwAMC9qdXqfv36xcTEqNVqIu6ZtlqtdnV1vXdKAKPQNgwAcG8PPPBAUVFRaWnplClTnnvuuZs3b27evFmn0907JYBRCMMAAPe2e/ful156acmSJd7e3l5eXikpKcnJycKcqhmsC94bBgDxU6lUWVlZDz30kJ+fHyutTqfLzMzs16/fAw88kJmZef/99w8aNIiIbt68ee7cucDAQCcnJyLKyclxcXEZOXIk61B9+vRpW1tbjUbTv3//AQMGiP/EQedDGAYAALAYPJQGAACwGIRhAAAAi0EYBgAAsBiEYQAAAItBGAYAALAYhGEAAACLQRgGAACwGIRhAAAAi0EYBgAAsBiEYQAAAItBGAYw6t//pq1bjW4heCIoAhFKISCoUSaFMaUBjAoJoexsuniR7Kx2cm4RFIEIpRAQ1CiTwt0wQMuysujAAe63/9dft7yRsImgCEQohYCgRpkawjBAy3bvptu3uT+nplJlZcvbCZgIikCEUggIapSpIQwDtCAri7viMN9/z0ViqyOCIrBbYWv/IlAKQRHY/wuEYYAW/OMfv90KM3FxpNG0sKlQiaAIRCiFgKBGdQJ00QIwqm9fKi6moiJuwUqJoAhEKIWAoEaZFO6GAYzS67k/SyRGNxI2ERSBCKUQENQok0IYBjBKBFccERQBYVhQUKNMCmEYwCgRXHFEUASEYUFBjTIphGEAo0RwxRFBERCGBQU1yqQQhgGMEsEVRwRFQBgWFNQok0IYBjBKBFccERQBYVhQUKNMCmEYwCgRXHFEUASEYUFBjTIphGEAo0RwxRFBERCGBQU1yqQQhgGMEsEVRwRFQBgWFNQok0IYBjBKBFccERQBYVhQUKNMCmEYwCgRXHFEUASEYUFBjTIphGEAo0RwxRFBERCGBQU1yqQQhgGMEsEVRwRFQBgWFNQok0IYBjBKBFccERQBYVhQUKNMCmEYwCgRXHFEUASEYUFBjTIphGEAo0RwxRFBERCGBQU1yqQQhgGMEsEVRwRFQBgWFNQok0IYBjBKBFccERQBYVhQUKNMCmEYwCgRXHFEUASEYUFBjTIphGEAo0RwxRFBERCGBQU1yqQQhgGMEsEVRwRFQBgWFNQok0IYBjBKBFccERQBYVhQUKNMCmEYwCgRXHFEUASEYUFBjTIphGEAo0RwxRFBERCGBQU1yqQQhgGMEsEVRwRFQBgWFNQok0IYBjBKBFccERQBYVhQUKNMCmEYwCgRXHFEUASEYUFBjTIphGEAo0RwxRFBERCGBQU1yqQQhgGMEsEVRwRFQBgWFNQok5Lo2QkFAAAAs8PdMAAAgMUgDAMAAFgMwjAAAIDFIAwDAABYDMIwAACAxSAMAwAAWAzCMAAAgMUgDAMAAFgMwjAAAIDFIAwDAABYDMIwAACAxSAMAwAAWAzCMAAAgMUgDAMAAFgMwjAAAIDFIAwDALTBm2++KZFILl++zKc5d+5caWlpG3YBYABhGACEJSkpacKECZJGEyZM+O677wSVv8rKSiJSKBQsV2lpaSNGjBg1apSgMglWxM6K8goAohccHLxr1y4iCgoKIqJdu3YdP348NTV1+vTpwiz7fffdR0RDhgwRZvZA+BCGAUAocnNzd+3aNXTo0OzsbKlUSkQbNmzYtGlTdXW1ULJ4h7Fjx+r1+jtWA7QWwjAACMXFixeJKCIigsVgIpJKpe+9955Q8gfQCdA2DADCcvjwYSMZqqqqMt54nJaWJpFIzjVibcw+Pj6RkZFVVVVE3A03vzIpKcnwQCzh5UasH5ZEIgkODj537pyR/Fy+fFkikbz55pv8NiwtEX333XcBAQESCZeBVatWsQzwqqqqIiMjfXx8WCs4r1muQPz0AADCUFJSwq65y5Ytk8lkd2ZKJpMNHTqUiMLDwxMTE+Pj4729vYkoMTGR3zgxMZGI2wMReXt7szZm1tjMVg4dOpRfGR8fbyQhOxYRFRYW8puxtD/99BNb89NPP7GdN9vgzmOFh4fz28hkMpbzZcuWJSYmsn16e3snJibye4YuAmEYAATkyJEjLBJ7e3vHx8eXlJQYZq6kpCQwMNAwKBYWFhJxkZXfjIVhFolZLGfbMHzAzsnJYXHaSEK9Xs+iaVBQ8yh7zzBMRKmpqWznfAb44qSmpjb79cAisWHRoItAGAYAYSksLOTvVol+d8N6Vyy+8n9iYdjw1lOv/y3I8XGRYTe7fOTjb6MNjyKTydj++bvzVt4NNztWeHg40X+DN9uJ4Y8MdvRmqaArQNswAAjLwIEDd+7cWVJSwu5EIyIiIiMjDbNYVVWVm5ub1OSuuX/00UcN1z/99NNE3J4NV7IwzL8BzPTv399wG6lUyjYrLi6+64Fa0uxYLD9lZWUtbQ9dFsIwAAiRr69vTEwMe0a9cuVKftSqpKSkQYMGPf7446FNOjv3fAtxx/GN3+xnQV5eHr9P1jFt+PDhHT8KWBeEYQAQrkmTJrHnt6y7cm5ubmho6JAhQ3JycvjHlZ2d+4KCApMf4qmnniKiGTNmREZGJiUlsUFLli1b1uweGroCvDcMAILGHuSywao2b95MRH/729/Gjh3bSZluNlRIaWkpC8OmvU9duHCht7d3WFhYQkLC7du3hw4dmpiYOHv27E4qFAgZ7oYBQCgCAgKSkpIM369NS0s7fvy4t7f3Qw89RESenp5Ev43ywZh8xOmIiIhVq1axnVdVVa1cuZJ//cmEMjMzfXx8Fi1adOvWLb1ef+HCBcTgLgthGAAEJDQ01N3dPbhRQEDAjBkziGjbtm1sXC32gDo0NJR/lvvUU0+xF3BNJTAwMCIiwsfHJzg4eNCgQevXr/f29mb9nE1oz549BQUF7u7u/KgdEyZMiIyMNJy4CboIhGEAEIrs7OzExMTAwMBdjW7durVs2bLCwsJJkyaxLA4fPjwnJycwMHDlypWhoVznrJycnGazPvTo0YPot3+N8/DwICJnZ2fDzWbOnJmTkzNkyBA2w8SyZcvOnj3r6+vLb9MsFUvOVjJ33S3D8kZEBw4c4AchYXr27Lly5connngCcyZ2NRIMSg4AQMT1wQ4NDTVDG+3ly5cHDRoUFBS0c+dOwzO/atWqiIgIM2QABAV3wwAAZsXeVB4zZkyzo7LBtvz8/MyaG7A09JQGADCrPn36eHt7R0RE7NmzZ+bMmURc9+zExMSCgoLAwED+CTx0EQjDAACc1jcqd5BUKj179uz69eszMjJYCzebHCI6OrpZOzd0BWgbBgAAsBi0DQMAAFgMwjAAAIDFIAwDAABYDMIwAACAxfw/4q9fx3uEDpAAAAAASUVORK5CYII=;" vertex="1" parent="1-Zycqq-4m_5n2CwUNeE-47">
          <mxGeometry x="480" y="30" width="219.76" height="140" as="geometry" />
        </mxCell>
        <mxCell id="1-Zycqq-4m_5n2CwUNeE-52" value="Full Quantization" style="text;html=1;align=center;verticalAlign=middle;resizable=0;points=[];autosize=1;strokeColor=none;fillColor=none;" vertex="1" parent="1">
          <mxGeometry x="49" y="700" width="120" height="30" as="geometry" />
        </mxCell>
        <mxCell id="1-Zycqq-4m_5n2CwUNeE-53" style="edgeStyle=orthogonalEdgeStyle;rounded=0;orthogonalLoop=1;jettySize=auto;html=1;entryX=0;entryY=0.5;entryDx=0;entryDy=0;" edge="1" parent="1" target="1-Zycqq-4m_5n2CwUNeE-57">
          <mxGeometry relative="1" as="geometry">
            <mxPoint x="98" y="785" as="sourcePoint" />
            <Array as="points">
              <mxPoint x="138" y="785" />
              <mxPoint x="138" y="785" />
            </Array>
          </mxGeometry>
        </mxCell>
        <mxCell id="1-Zycqq-4m_5n2CwUNeE-54" value="&amp;lt;784&amp;gt;" style="edgeLabel;html=1;align=center;verticalAlign=middle;resizable=0;points=[];" vertex="1" connectable="0" parent="1-Zycqq-4m_5n2CwUNeE-53">
          <mxGeometry x="-0.0698" relative="1" as="geometry">
            <mxPoint as="offset" />
          </mxGeometry>
        </mxCell>
        <mxCell id="1-Zycqq-4m_5n2CwUNeE-55" style="edgeStyle=orthogonalEdgeStyle;rounded=0;orthogonalLoop=1;jettySize=auto;html=1;entryX=0.5;entryY=1;entryDx=0;entryDy=0;" edge="1" parent="1" source="1-Zycqq-4m_5n2CwUNeE-57" target="1-Zycqq-4m_5n2CwUNeE-60">
          <mxGeometry relative="1" as="geometry" />
        </mxCell>
        <mxCell id="1-Zycqq-4m_5n2CwUNeE-56" value="&lt;div&gt;&amp;lt;784&amp;gt;&lt;/div&gt;&lt;div&gt;int8&lt;/div&gt;" style="edgeLabel;html=1;align=center;verticalAlign=middle;resizable=0;points=[];" vertex="1" connectable="0" parent="1-Zycqq-4m_5n2CwUNeE-55">
          <mxGeometry x="0.1436" y="-2" relative="1" as="geometry">
            <mxPoint x="-2" y="-97" as="offset" />
          </mxGeometry>
        </mxCell>
        <mxCell id="1-Zycqq-4m_5n2CwUNeE-57" value="&lt;div&gt;Basis LUT&lt;/div&gt;&lt;div&gt;&lt;br&gt;&lt;/div&gt;&lt;div&gt;[-127, 127]&amp;nbsp;&lt;/div&gt;&lt;div&gt;256*(gs+k)&lt;/div&gt;" style="whiteSpace=wrap;html=1;" vertex="1" parent="1">
          <mxGeometry x="158" y="750" width="120" height="70" as="geometry" />
        </mxCell>
        <mxCell id="1-Zycqq-4m_5n2CwUNeE-58" style="edgeStyle=orthogonalEdgeStyle;rounded=0;orthogonalLoop=1;jettySize=auto;html=1;" edge="1" parent="1" source="1-Zycqq-4m_5n2CwUNeE-60" target="1-Zycqq-4m_5n2CwUNeE-63">
          <mxGeometry relative="1" as="geometry" />
        </mxCell>
        <mxCell id="1-Zycqq-4m_5n2CwUNeE-59" value="&lt;div&gt;&amp;lt;24&amp;gt;&lt;/div&gt;&lt;div&gt;int32&lt;/div&gt;" style="edgeLabel;html=1;align=center;verticalAlign=middle;resizable=0;points=[];" vertex="1" connectable="0" parent="1-Zycqq-4m_5n2CwUNeE-58">
          <mxGeometry x="0.1552" y="-2" relative="1" as="geometry">
            <mxPoint x="-6" y="-2" as="offset" />
          </mxGeometry>
        </mxCell>
        <mxCell id="1-Zycqq-4m_5n2CwUNeE-60" value="&lt;div&gt;Layer-1 INT8&lt;/div&gt;&lt;div&gt;&amp;nbsp;&lt;/div&gt;&lt;div&gt;[784, 24]&lt;/div&gt;" style="whiteSpace=wrap;html=1;" vertex="1" parent="1">
          <mxGeometry x="242" y="845" width="120" height="90" as="geometry" />
        </mxCell>
        <mxCell id="1-Zycqq-4m_5n2CwUNeE-61" style="edgeStyle=orthogonalEdgeStyle;rounded=0;orthogonalLoop=1;jettySize=auto;html=1;entryX=1;entryY=0.5;entryDx=0;entryDy=0;" edge="1" parent="1" source="1-Zycqq-4m_5n2CwUNeE-63" target="1-Zycqq-4m_5n2CwUNeE-57">
          <mxGeometry relative="1" as="geometry">
            <Array as="points">
              <mxPoint x="458" y="785" />
            </Array>
          </mxGeometry>
        </mxCell>
        <mxCell id="1-Zycqq-4m_5n2CwUNeE-62" value="&lt;div&gt;&amp;lt;24&amp;gt;&lt;/div&gt;&lt;div&gt;int8&lt;/div&gt;" style="edgeLabel;html=1;align=center;verticalAlign=middle;resizable=0;points=[];" vertex="1" connectable="0" parent="1-Zycqq-4m_5n2CwUNeE-61">
          <mxGeometry x="0.2144" relative="1" as="geometry">
            <mxPoint as="offset" />
          </mxGeometry>
        </mxCell>
        <mxCell id="1-Zycqq-4m_5n2CwUNeE-63" value="&lt;div&gt;Requantize&lt;/div&gt;&lt;div&gt;INT32-&amp;gt;INT8&lt;/div&gt;&lt;div&gt;&lt;font style=&quot;font-size: 9px;&quot;&gt;M=S_W*S_B/S_G&lt;/font&gt;&lt;/div&gt;" style="whiteSpace=wrap;html=1;" vertex="1" parent="1">
          <mxGeometry x="421" y="855" width="92" height="70" as="geometry" />
        </mxCell>
        <mxCell id="1-Zycqq-4m_5n2CwUNeE-64" style="edgeStyle=orthogonalEdgeStyle;rounded=0;orthogonalLoop=1;jettySize=auto;html=1;" edge="1" parent="1" source="1-Zycqq-4m_5n2CwUNeE-66">
          <mxGeometry relative="1" as="geometry">
            <mxPoint x="720" y="890" as="targetPoint" />
          </mxGeometry>
        </mxCell>
        <mxCell id="1-Zycqq-4m_5n2CwUNeE-65" value="&lt;div&gt;&amp;lt;10&amp;gt;&lt;/div&gt;&lt;div&gt;int32&lt;/div&gt;" style="edgeLabel;html=1;align=center;verticalAlign=middle;resizable=0;points=[];" vertex="1" connectable="0" parent="1-Zycqq-4m_5n2CwUNeE-64">
          <mxGeometry x="-0.1135" y="-1" relative="1" as="geometry">
            <mxPoint as="offset" />
          </mxGeometry>
        </mxCell>
        <mxCell id="1-Zycqq-4m_5n2CwUNeE-66" value="&lt;div&gt;Layer-2 INT8&lt;/div&gt;&lt;div&gt;&lt;br&gt;&lt;/div&gt;&lt;div&gt;[24,10]&lt;/div&gt;" style="whiteSpace=wrap;html=1;" vertex="1" parent="1">
          <mxGeometry x="540" y="845" width="120" height="90" as="geometry" />
        </mxCell>
        <mxCell id="1-Zycqq-4m_5n2CwUNeE-67" style="edgeStyle=orthogonalEdgeStyle;rounded=0;orthogonalLoop=1;jettySize=auto;html=1;entryX=0.5;entryY=1;entryDx=0;entryDy=0;exitX=0.25;exitY=1;exitDx=0;exitDy=0;" edge="1" parent="1" target="1-Zycqq-4m_5n2CwUNeE-66" source="1-Zycqq-4m_5n2CwUNeE-57">
          <mxGeometry relative="1" as="geometry">
            <mxPoint x="298" y="955" as="sourcePoint" />
            <mxPoint x="432" y="1120" as="targetPoint" />
            <Array as="points">
              <mxPoint x="188" y="970" />
              <mxPoint x="600" y="970" />
            </Array>
          </mxGeometry>
        </mxCell>
        <mxCell id="1-Zycqq-4m_5n2CwUNeE-69" value="&lt;div&gt;&amp;lt;24&amp;gt;&lt;/div&gt;&lt;div&gt;int8&lt;/div&gt;" style="edgeLabel;html=1;align=center;verticalAlign=middle;resizable=0;points=[];" vertex="1" connectable="0" parent="1-Zycqq-4m_5n2CwUNeE-67">
          <mxGeometry x="0.3285" y="-3" relative="1" as="geometry">
            <mxPoint as="offset" />
          </mxGeometry>
        </mxCell>
        <mxCell id="1-Zycqq-4m_5n2CwUNeE-68" value="&lt;div&gt;x&amp;nbsp;&lt;/div&gt;&lt;div&gt;int8&lt;/div&gt;&lt;div&gt;[-2,2]&lt;/div&gt;" style="text;html=1;align=center;verticalAlign=middle;resizable=0;points=[];autosize=1;strokeColor=none;fillColor=none;" vertex="1" parent="1">
          <mxGeometry x="49" y="755" width="50" height="60" as="geometry" />
        </mxCell>
        <mxCell id="1-Zycqq-4m_5n2CwUNeE-70" value="" style="group" vertex="1" connectable="0" parent="1">
          <mxGeometry x="39" y="700" width="750" height="390" as="geometry" />
        </mxCell>
        <mxCell id="1-Zycqq-4m_5n2CwUNeE-71" value="" style="endArrow=none;dashed=1;html=1;rounded=0;" edge="1" parent="1-Zycqq-4m_5n2CwUNeE-70">
          <mxGeometry width="50" height="50" relative="1" as="geometry">
            <mxPoint x="5.213505461767648" y="390" as="sourcePoint" />
            <mxPoint x="5.213505461767648" as="targetPoint" />
          </mxGeometry>
        </mxCell>
        <mxCell id="1-Zycqq-4m_5n2CwUNeE-72" value="" style="endArrow=none;dashed=1;html=1;rounded=0;" edge="1" parent="1-Zycqq-4m_5n2CwUNeE-70">
          <mxGeometry width="50" height="50" relative="1" as="geometry">
            <mxPoint x="750" y="390" as="sourcePoint" />
            <mxPoint x="5.213505461767648" y="390" as="targetPoint" />
          </mxGeometry>
        </mxCell>
        <mxCell id="1-Zycqq-4m_5n2CwUNeE-73" value="" style="endArrow=none;dashed=1;html=1;rounded=0;" edge="1" parent="1-Zycqq-4m_5n2CwUNeE-70">
          <mxGeometry width="50" height="50" relative="1" as="geometry">
            <mxPoint x="744.7864945382324" as="sourcePoint" />
            <mxPoint as="targetPoint" />
          </mxGeometry>
        </mxCell>
        <mxCell id="1-Zycqq-4m_5n2CwUNeE-74" value="" style="endArrow=none;dashed=1;html=1;rounded=0;" edge="1" parent="1-Zycqq-4m_5n2CwUNeE-70">
          <mxGeometry width="50" height="50" relative="1" as="geometry">
            <mxPoint x="750" y="390" as="sourcePoint" />
            <mxPoint x="750" as="targetPoint" />
          </mxGeometry>
        </mxCell>
        <mxCell id="1-Zycqq-4m_5n2CwUNeE-75" value="&lt;div align=&quot;left&quot;&gt;&lt;ul&gt;&lt;li&gt;Sampled values from the basis functions are quantized&lt;/li&gt;&lt;li&gt;ALL operations are carried out in integer &lt;br&gt;&lt;/li&gt;&lt;li&gt;&lt;b&gt;Idea&lt;/b&gt;: Maybe sample the basis functions to a different bit size than the layers. Decrease the LUT size, &lt;br&gt;but keep the same accuracy in the layers.&lt;/li&gt;&lt;/ul&gt;&lt;/div&gt;" style="text;html=1;align=left;verticalAlign=middle;resizable=0;points=[];autosize=1;strokeColor=none;fillColor=none;labelBackgroundColor=none;labelBorderColor=none;textShadow=0;" vertex="1" parent="1-Zycqq-4m_5n2CwUNeE-70">
          <mxGeometry x="11" y="289.9990909090909" width="630" height="100" as="geometry" />
        </mxCell>
      </root>
    </mxGraphModel>
  </diagram>
</mxfile>
